<svg width="24" height="24" viewBox="0 0 24 24" fill="none" xmlns="http://www.w3.org/2000/svg">
<g clip-path="url(#clip0_66_3011)">
<path fill-rule="evenodd" clip-rule="evenodd" d="M12 4C19.937 4 24.012 12 24.012 12C24.012 12 20.937 20 12 20C3.90696 20 -0.0110359 12.031 -0.0110359 12.031C-0.0110359 12.031 3.93796 4 12 4ZM11.982 17C14.884 17 16.982 14.812 16.982 12C16.982 9.187 14.884 7 11.982 7C9.07996 7 6.98196 9.187 6.98196 12C6.98196 14.812 9.07996 17 11.982 17ZM11.982 9C13.64 9.003 14.982 10.393 14.982 12C14.982 13.606 13.64 15 11.982 15C10.324 15 8.98196 13.605 8.98196 12C8.98196 10.392 10.324 8.997 11.982 9Z" fill="white"/>
</g>
<defs>
<clipPath id="clip0_66_3011">
<rect width="24" height="24" fill="white" transform="matrix(-1 0 0 1 24 0)"/>
</clipPath>
</defs>
</svg>
