<svg xmlns="http://www.w3.org/2000/svg" width="2896" height="4096" viewBox="0 0 2896 4096" version="1.1"><path d="M 1460.548 462.347 L 1452.596 467.565 1452.889 545.474 L 1453.182 623.384 1458.009 628.800 C 1463.655 635.134, 1468.350 643.522, 1470.064 650.335 C 1473.686 664.732, 1462.788 677.534, 1447 677.428 C 1433.419 677.337, 1421.903 663.597, 1424.819 650.964 C 1426.572 643.369, 1430.765 635.601, 1436.576 629.179 L 1442 623.185 1442 549.093 C 1442 508.342, 1441.817 475, 1441.594 475 C 1440.779 475, 1424.058 485.097, 1423.573 485.883 C 1423.298 486.328, 1421.685 493.623, 1419.988 502.096 C 1418.292 510.568, 1415.743 522.450, 1414.324 528.500 C 1412.906 534.550, 1411.409 541.075, 1410.999 543 C 1409.917 548.075, 1403.547 572.015, 1400.488 582.500 C 1399.043 587.450, 1397.476 592.850, 1397.004 594.500 C 1391.185 614.849, 1380.228 643.383, 1370.510 663.500 C 1354.240 697.180, 1341.045 713.454, 1318.265 727.937 C 1309.360 733.599, 1310.017 732.538, 1307.084 746 C 1305.483 753.352, 1303.080 763.666, 1301.933 768.116 C 1300.375 774.155, 1300.875 775.286, 1307.528 780.776 C 1320.666 791.615, 1336.695 812.012, 1346.213 830 C 1355.640 847.817, 1362.144 868.566, 1365.021 890 C 1365.817 895.928, 1366.213 936.780, 1366.331 1025 L 1366.500 1151.500 1370.500 1151.214 C 1372.700 1151.057, 1379.450 1150.253, 1385.500 1149.427 C 1396.362 1147.944, 1402.895 1147.110, 1420.500 1144.957 C 1425.450 1144.351, 1433.662 1143.204, 1438.750 1142.407 C 1446.852 1141.137, 1449.148 1141.139, 1457.250 1142.425 C 1465.987 1143.812, 1472.608 1144.709, 1490.750 1146.963 C 1495.013 1147.492, 1503.675 1148.623, 1510 1149.476 C 1516.325 1150.328, 1523.173 1151.248, 1525.218 1151.520 L 1528.937 1152.014 1529.277 1020.257 L 1529.618 888.500 1532.237 877 C 1539.584 844.753, 1550.914 821.573, 1571.095 797.500 C 1578.011 789.250, 1583.462 783.850, 1590.634 778.142 C 1594.461 775.096, 1594.704 774.617, 1593.912 771.676 C 1593.103 768.677, 1589.898 754.277, 1586.887 740.119 C 1586 735.950, 1584.831 733.250, 1583.515 732.330 C 1567.125 720.870, 1561.860 716.851, 1557.560 712.517 C 1532.441 687.196, 1509.514 635.629, 1489.307 559 C 1487.349 551.575, 1485.411 543.925, 1485.001 542 C 1484.591 540.075, 1483.094 533.550, 1481.676 527.500 C 1475.856 502.681, 1472.658 484.235, 1470.448 462.750 C 1470.122 459.587, 1469.551 457.029, 1469.178 457.065 C 1468.805 457.100, 1464.922 459.477, 1460.548 462.347 M 1323.974 918.882 C 1314.885 922.628, 1305.885 926.412, 1303.974 927.289 C 1302.063 928.167, 1296 930.890, 1290.500 933.340 C 1285 935.791, 1276.450 939.690, 1271.500 942.005 C 1266.550 944.320, 1259.654 947.526, 1256.176 949.130 C 1248.073 952.865, 1195.394 979.218, 1187.500 983.486 C 1184.200 985.270, 1177 989.118, 1171.500 992.037 C 1166 994.956, 1159.925 998.225, 1158 999.301 C 1156.075 1000.377, 1151.125 1003.082, 1147 1005.312 C 1142.875 1007.543, 1136.200 1011.310, 1132.167 1013.684 C 1128.134 1016.058, 1124.696 1018, 1124.527 1018 C 1123.826 1018, 1092 1036.886, 1063.500 1054.214 C 1048.975 1063.045, 1022.789 1079.909, 1004.500 1092.209 C 909.410 1156.164, 831.880 1219.146, 760.432 1290.479 C 708.178 1342.648, 671.153 1385.576, 632.329 1439 C 607.714 1472.874, 589.659 1501.255, 563.945 1546.500 C 558.637 1555.839, 538.852 1595.522, 533.531 1607.500 C 530.355 1614.650, 526.739 1622.760, 525.496 1625.523 C 522.259 1632.715, 516.390 1646.979, 514.114 1653.187 C 513.042 1656.109, 510.977 1661.650, 509.524 1665.500 C 499.968 1690.817, 486.979 1732.531, 481.656 1755 C 480.809 1758.575, 479.212 1765.325, 478.108 1770 C 471.720 1797.044, 465.322 1835.313, 462.059 1866 C 456.879 1914.706, 456.843 1918.410, 457.184 2377 L 457.500 2802.500 459.713 2798.362 C 466.315 2786.019, 487.541 2763.802, 512.500 2743.111 C 521.311 2735.807, 536.404 2726.866, 542.364 2725.421 C 545.193 2724.735, 545.161 2724.693, 539.831 2722.080 C 536.863 2720.624, 532.649 2718.128, 530.467 2716.532 C 524.412 2712.104, 515.043 2702.857, 513.210 2699.500 C 511.699 2696.733, 511.595 2666.324, 511.869 2307.500 C 512.113 1988.121, 512.415 1914.742, 513.559 1897.500 C 514.762 1879.363, 516.581 1861.692, 518.549 1849 C 520.551 1836.093, 521.427 1831.166, 523.617 1820.500 C 542.449 1728.769, 581.275 1646.465, 643.441 1566.500 C 647.289 1561.550, 650.677 1557.275, 650.969 1557 C 651.261 1556.725, 653.285 1554.250, 655.466 1551.500 C 657.647 1548.750, 659.675 1546.275, 659.972 1546 C 660.269 1545.725, 662.980 1542.575, 665.997 1539 C 686.083 1515.193, 725.139 1476.124, 752 1452.968 C 756.125 1449.412, 759.725 1446.275, 760 1445.998 C 762.008 1443.973, 780.515 1429.052, 795.500 1417.377 C 810.828 1405.436, 819.367 1399.077, 836.966 1386.500 C 844.565 1381.069, 884.999 1354.317, 896 1347.442 C 908.475 1339.646, 939.897 1321, 940.561 1321 C 940.754 1321, 943.126 1319.695, 945.832 1318.099 C 950.359 1315.430, 956.170 1312.160, 966.500 1306.467 C 981.454 1298.227, 1047.054 1265, 1048.368 1265 C 1048.591 1265, 1053.212 1262.942, 1058.636 1260.427 C 1064.061 1257.912, 1069.850 1255.251, 1071.500 1254.514 C 1073.150 1253.776, 1076.975 1252.056, 1080 1250.692 C 1091.403 1245.549, 1121.069 1233.003, 1136 1227.009 C 1144.525 1223.587, 1153.750 1219.872, 1156.500 1218.754 C 1162.091 1216.480, 1173.181 1212.295, 1177 1211.018 C 1178.375 1210.558, 1182.650 1208.996, 1186.500 1207.547 C 1211.221 1198.242, 1251.475 1184.696, 1283.500 1174.905 C 1291.028 1172.603, 1303.823 1168.835, 1307 1167.983 C 1308.925 1167.468, 1314.550 1165.905, 1319.500 1164.512 C 1324.450 1163.119, 1331.650 1161.184, 1335.500 1160.213 L 1342.500 1158.447 1342.754 1035.223 C 1342.956 936.955, 1342.754 912.007, 1341.754 912.035 C 1341.064 912.055, 1333.063 915.136, 1323.974 918.882 M 1555 1035.365 L 1555 1158.730 1562.250 1160.443 C 1569.897 1162.250, 1570.311 1162.364, 1595.500 1169.550 C 1634.453 1180.664, 1691.427 1199.711, 1724 1212.510 C 1725.925 1213.266, 1731.775 1215.519, 1737 1217.516 C 1751.952 1223.231, 1786.372 1237.385, 1799 1243.012 C 1805.325 1245.830, 1812.525 1248.964, 1815 1249.976 C 1819.459 1251.800, 1828.194 1255.780, 1847.500 1264.785 C 1913.621 1295.626, 1988.767 1338.240, 2042.500 1375.368 C 2058.824 1386.647, 2079.341 1401.207, 2080 1401.980 C 2080.275 1402.302, 2082.975 1404.336, 2086 1406.500 C 2089.025 1408.664, 2091.725 1410.698, 2092 1411.020 C 2092.275 1411.342, 2094.300 1412.929, 2096.500 1414.547 C 2098.700 1416.165, 2100.725 1417.720, 2101 1418.003 C 2101.275 1418.286, 2107.125 1422.984, 2114 1428.444 C 2120.875 1433.903, 2126.725 1438.627, 2127 1438.941 C 2127.275 1439.255, 2130.425 1441.982, 2134 1445 C 2137.575 1448.018, 2140.725 1450.715, 2141 1450.994 C 2141.275 1451.272, 2145.325 1454.861, 2150 1458.969 C 2171.357 1477.737, 2200.368 1506.750, 2220.526 1529.500 C 2224.912 1534.450, 2228.726 1538.725, 2229.003 1539 C 2230.318 1540.306, 2244.314 1557.476, 2250.605 1565.500 C 2278.981 1601.693, 2304.125 1641.688, 2323.642 1681.673 C 2328.789 1692.218, 2333 1701.092, 2333 1701.393 C 2333 1701.694, 2334.075 1704.317, 2335.390 1707.220 C 2343.981 1726.202, 2351.659 1747.995, 2361.913 1782.500 C 2365.633 1795.017, 2373.482 1832.945, 2375.882 1850 C 2382.142 1894.490, 2381.841 1873.648, 2382.421 2303.402 C 2382.908 2664.483, 2382.821 2695.574, 2381.317 2698.743 C 2377.771 2706.217, 2360.803 2721.065, 2353 2723.523 C 2350.640 2724.266, 2350.753 2724.400, 2355.028 2725.905 C 2367.672 2730.358, 2386.351 2744.443, 2407.536 2765.500 C 2423.453 2781.321, 2430.298 2789.530, 2434.776 2798.173 L 2437.500 2803.429 2437.788 2790.465 C 2437.946 2783.334, 2437.920 2582.650, 2437.731 2344.500 C 2437.468 2013.853, 2437.099 1908.545, 2436.169 1899 C 2435.499 1892.125, 2434.258 1879.300, 2433.412 1870.500 C 2432.566 1861.700, 2431.476 1851.800, 2430.988 1848.500 C 2430.501 1845.200, 2429.586 1838.675, 2428.954 1834 C 2428.322 1829.325, 2426.925 1820.550, 2425.849 1814.500 C 2424.773 1808.450, 2423.493 1801.250, 2423.004 1798.500 C 2419.186 1777.028, 2409.105 1736.356, 2401.811 1713 C 2395.452 1692.637, 2388.487 1672.277, 2383.507 1659.500 C 2375.182 1638.136, 2368.022 1620.967, 2360.780 1605 C 2352.744 1587.285, 2337.079 1556.639, 2326.276 1537.500 C 2323.793 1533.100, 2320.625 1527.475, 2319.237 1525 C 2317.850 1522.525, 2315.878 1519.306, 2314.857 1517.846 C 2313.836 1516.386, 2313 1514.940, 2313 1514.633 C 2313 1513.748, 2296.701 1487.928, 2285.804 1471.552 C 2255.037 1425.312, 2221.957 1383.111, 2179.552 1336 C 2166.438 1321.431, 2115.043 1269.411, 2100.952 1256.445 C 2085.498 1242.225, 2074.274 1232.122, 2066.500 1225.434 C 2062.100 1221.648, 2058.275 1218.312, 2058 1218.019 C 2057.725 1217.727, 2054.575 1215.018, 2051 1212 C 2047.425 1208.982, 2044.275 1206.269, 2044 1205.971 C 2043.725 1205.674, 2038.100 1201.012, 2031.500 1195.613 C 2024.900 1190.214, 2018.585 1185.029, 2017.466 1184.092 C 2016.347 1183.155, 2007.347 1176.085, 1997.466 1168.382 C 1882.735 1078.936, 1750.054 998.561, 1615.500 936.995 C 1592.404 926.428, 1558.094 912, 1556.060 912 C 1555.319 912, 1555 949.124, 1555 1035.365 M 1417.343 1201.215 C 1416.571 1202.427, 1408.291 1226.515, 1393.274 1271.240 C 1389.629 1282.097, 1386.838 1291.120, 1387.073 1291.293 C 1387.308 1291.465, 1391.693 1291.423, 1396.818 1291.201 C 1407.427 1290.740, 1406.343 1291.736, 1410.103 1279 C 1411.321 1274.875, 1412.583 1271.220, 1412.908 1270.878 C 1413.234 1270.536, 1421.217 1269.982, 1430.648 1269.647 L 1447.797 1269.039 1452.059 1279.140 L 1456.321 1289.241 1461.411 1288.629 C 1464.210 1288.293, 1468.638 1288.013, 1471.250 1288.009 C 1473.862 1288.004, 1476 1287.581, 1476 1287.070 C 1476 1286.226, 1474.812 1283.487, 1467.515 1267.500 C 1466.260 1264.750, 1464.116 1260.025, 1462.750 1257 C 1461.384 1253.975, 1459.236 1249.250, 1457.977 1246.500 C 1456.717 1243.750, 1451.508 1232.275, 1446.401 1221 L 1437.115 1200.500 1427.638 1200.215 C 1420.751 1200.007, 1417.938 1200.281, 1417.343 1201.215 M 1497.521 1204.250 C 1496.949 1206.740, 1494.305 1221.705, 1493.060 1229.500 C 1492.620 1232.250, 1490.352 1245.300, 1488.020 1258.500 C 1485.687 1271.700, 1483.716 1284.294, 1483.639 1286.486 C 1483.503 1290.392, 1483.580 1290.484, 1487.500 1291.120 C 1500.863 1293.287, 1500.679 1293.280, 1501.294 1291.676 C 1501.622 1290.822, 1503.125 1282.645, 1504.634 1273.505 L 1507.377 1256.888 1511.438 1257.562 C 1521.166 1259.177, 1523.432 1261.888, 1532.704 1283 C 1540.548 1300.861, 1539.810 1299.819, 1545.443 1300.988 C 1553.324 1302.624, 1561.458 1303.838, 1561.876 1303.440 C 1562.335 1303.002, 1552.684 1279.341, 1549.343 1272.714 C 1548.016 1270.082, 1545.318 1266.144, 1543.349 1263.964 C 1539.838 1260.078, 1539.815 1260, 1542.202 1260 C 1546.505 1260, 1554.814 1257.028, 1557.996 1254.350 C 1564.384 1248.975, 1568.023 1237.433, 1565.996 1228.981 C 1563.632 1219.129, 1557.547 1213.692, 1545.280 1210.474 C 1540.936 1209.334, 1500.336 1202, 1498.371 1202 C 1498.188 1202, 1497.806 1203.013, 1497.521 1204.250 M 1369.500 1204.248 C 1367.300 1204.795, 1363.700 1205.791, 1361.500 1206.460 L 1357.500 1207.677 1357.879 1238.088 C 1358.087 1254.815, 1358.035 1268.275, 1357.763 1268 C 1357.491 1267.725, 1351.298 1255.800, 1344.001 1241.500 C 1336.704 1227.200, 1330.349 1215.078, 1329.878 1214.561 C 1329.352 1213.984, 1325.075 1214.586, 1318.761 1216.126 L 1308.500 1218.629 1307.347 1245.065 C 1306.713 1259.604, 1306.145 1273.300, 1306.084 1275.500 C 1305.976 1279.430, 1305.894 1279.334, 1301.394 1270 C 1295.531 1257.837, 1289.854 1245.887, 1284.466 1234.366 L 1280.195 1225.233 1276.348 1226.004 C 1266.454 1227.989, 1262 1229.235, 1262 1230.020 C 1262 1231.377, 1301.975 1311.475, 1302.778 1311.726 C 1303.175 1311.850, 1307.550 1310.950, 1312.500 1309.726 L 1321.500 1307.500 1322.238 1294.500 C 1322.644 1287.350, 1323.319 1272.324, 1323.738 1261.109 L 1324.500 1240.718 1328.383 1248.109 C 1330.519 1252.174, 1333.941 1258.650, 1335.987 1262.500 C 1338.034 1266.350, 1342.537 1274.900, 1345.993 1281.500 C 1355.836 1300.293, 1355.628 1300.009, 1358.791 1299.022 C 1360.281 1298.557, 1364.367 1297.581, 1367.871 1296.855 C 1371.375 1296.128, 1374.376 1295.076, 1374.539 1294.517 C 1374.703 1293.958, 1375.071 1273.138, 1375.357 1248.250 C 1375.755 1213.628, 1375.598 1203.030, 1374.689 1203.126 C 1374.035 1203.196, 1371.700 1203.701, 1369.500 1204.248 M 1512.629 1226.250 C 1512.272 1229.138, 1511.582 1233.750, 1511.097 1236.500 C 1510.613 1239.250, 1510.293 1241.588, 1510.387 1241.696 C 1510.812 1242.182, 1526.125 1244.927, 1531.794 1245.533 C 1539.261 1246.332, 1542.905 1245.124, 1545.309 1241.053 C 1547.272 1237.732, 1547.475 1232.196, 1545.718 1229.925 C 1543.526 1227.090, 1539.609 1225.281, 1533 1224.050 C 1529.425 1223.384, 1524.340 1222.426, 1521.701 1221.920 C 1513.465 1220.341, 1513.355 1220.394, 1512.629 1226.250 M 1589.714 1228.250 C 1588.759 1232.237, 1587.356 1237.750, 1586.596 1240.500 C 1583.724 1250.892, 1579.729 1265.819, 1577.496 1274.500 C 1576.223 1279.450, 1574.067 1287.550, 1572.704 1292.500 C 1568.425 1308.048, 1568.331 1306.627, 1573.751 1308.350 C 1578.610 1309.894, 1584.779 1311.414, 1586.414 1311.469 C 1586.917 1311.486, 1588.104 1308.350, 1589.051 1304.500 C 1589.998 1300.650, 1591.725 1294.013, 1592.887 1289.750 C 1597.383 1273.261, 1599.275 1266.179, 1601.506 1257.500 C 1602.778 1252.550, 1604.933 1244.450, 1606.296 1239.500 C 1610.630 1223.752, 1611.108 1225.617, 1602.111 1223.152 C 1597.792 1221.968, 1593.627 1221, 1592.855 1221 C 1591.937 1221, 1590.848 1223.515, 1589.714 1228.250 M 1425.623 1229.311 C 1424.590 1232.715, 1422.453 1239.550, 1420.873 1244.500 C 1419.293 1249.450, 1418 1253.612, 1418 1253.750 C 1418 1254.439, 1437.685 1253.852, 1438.826 1253.129 C 1439.870 1252.467, 1439.156 1249.867, 1435.464 1240.894 C 1432.885 1234.627, 1430.038 1228.065, 1429.138 1226.311 L 1427.500 1223.121 1425.623 1229.311 M 1621.915 1236.042 C 1619.060 1244.427, 1618.426 1243.701, 1632.500 1248.166 C 1638 1249.911, 1642.847 1251.632, 1643.271 1251.990 C 1643.694 1252.348, 1638.893 1268.123, 1632.601 1287.046 C 1626.308 1305.968, 1621.353 1321.763, 1621.590 1322.145 C 1621.826 1322.527, 1625.277 1323.840, 1629.259 1325.064 C 1633.242 1326.288, 1637.015 1327.479, 1637.645 1327.711 C 1638.367 1327.977, 1643.109 1315.172, 1650.500 1293 C 1660.448 1263.154, 1662.458 1257.971, 1663.855 1258.557 C 1670.169 1261.207, 1686.496 1265.904, 1687.143 1265.257 C 1688.038 1264.362, 1692.176 1251.843, 1691.726 1251.393 C 1691.415 1251.081, 1625.302 1229, 1624.681 1229 C 1624.478 1229, 1623.234 1232.169, 1621.915 1236.042 M 1206 1249.452 C 1202.975 1250.728, 1195.325 1253.812, 1189 1256.306 C 1167.432 1264.808, 1156.500 1269.223, 1156.104 1269.591 C 1155.887 1269.793, 1157.314 1273.905, 1159.275 1278.729 C 1161.237 1283.553, 1164.864 1292.675, 1167.336 1299 C 1169.807 1305.325, 1175.171 1319.050, 1179.256 1329.500 C 1183.341 1339.950, 1186.965 1349.287, 1187.310 1350.250 C 1188.251 1352.876, 1188.331 1352.861, 1203.211 1347.124 L 1205.922 1346.079 1204.041 1341.290 C 1203.007 1338.655, 1200.099 1331.286, 1197.580 1324.914 C 1195.061 1318.542, 1193.002 1312.692, 1193.004 1311.914 C 1193.006 1311.136, 1194.918 1309.764, 1197.254 1308.865 C 1223.199 1298.876, 1226.098 1297.510, 1225.629 1295.500 C 1224.850 1292.153, 1221.910 1284.552, 1221.057 1283.677 C 1220.615 1283.224, 1212.682 1285.797, 1203.428 1289.395 C 1194.175 1292.993, 1186.487 1295.821, 1186.345 1295.679 C 1186.204 1295.537, 1184.528 1291.389, 1182.622 1286.460 C 1180.157 1280.089, 1179.494 1277.313, 1180.328 1276.852 C 1180.972 1276.495, 1189.946 1272.938, 1200.268 1268.946 C 1221.337 1260.800, 1219.885 1262.400, 1215.420 1252.250 C 1214.149 1249.362, 1212.748 1247.030, 1212.305 1247.066 C 1211.862 1247.102, 1209.025 1248.176, 1206 1249.452 M 1706.150 1262.146 C 1705.122 1264.541, 1703.371 1268.525, 1702.258 1271 C 1701.145 1273.475, 1695.863 1285.850, 1690.520 1298.500 C 1685.177 1311.150, 1679.039 1325.517, 1676.880 1330.427 C 1674.721 1335.337, 1673.302 1339.684, 1673.727 1340.087 C 1674.850 1341.150, 1689.989 1347.367, 1690.312 1346.897 C 1690.462 1346.679, 1693.906 1338.737, 1697.966 1329.250 C 1702.025 1319.763, 1705.738 1312, 1706.215 1312 C 1706.693 1312, 1709.877 1313.298, 1713.292 1314.884 C 1716.706 1316.471, 1723.100 1319.235, 1727.500 1321.027 C 1731.900 1322.819, 1735.815 1324.559, 1736.199 1324.893 C 1736.584 1325.227, 1736.298 1326.850, 1735.564 1328.500 C 1734.830 1330.150, 1733.512 1333.123, 1732.636 1335.108 C 1730.494 1339.953, 1722 1360.240, 1722 1360.509 C 1722 1360.799, 1737.794 1368, 1738.432 1368 C 1739.092 1368, 1742.588 1360.327, 1748.446 1346.025 C 1751.023 1339.733, 1754.174 1332.305, 1755.448 1329.520 C 1756.722 1326.734, 1759.435 1320.415, 1761.476 1315.477 C 1763.518 1310.540, 1765.999 1304.700, 1766.990 1302.500 C 1770.637 1294.409, 1774.108 1285.777, 1773.808 1285.547 C 1772.985 1284.916, 1758.025 1279, 1757.252 1279 C 1756.764 1279, 1754.855 1282.713, 1753.011 1287.250 C 1748.625 1298.038, 1743.177 1310, 1742.650 1310 C 1741.093 1310, 1712 1297.264, 1712 1296.582 C 1712 1296.337, 1714.925 1289.291, 1718.500 1280.924 C 1722.075 1272.557, 1724.999 1265.439, 1724.997 1265.106 C 1724.994 1264.600, 1716.227 1260.753, 1709.759 1258.421 C 1708.410 1257.934, 1707.597 1258.774, 1706.150 1262.146 M 1104.147 1291.874 C 1089.824 1296.962, 1079.201 1306.263, 1075.448 1317 C 1072.953 1324.141, 1072.507 1334.515, 1074.374 1342 C 1078.507 1358.576, 1089.208 1373.134, 1101.610 1379.052 C 1107.482 1381.855, 1109.125 1382.182, 1117.333 1382.179 C 1127.927 1382.176, 1136.256 1379.592, 1145.546 1373.425 C 1158.488 1364.835, 1165.204 1349.750, 1162.876 1334.500 C 1161.779 1327.314, 1160.887 1324.709, 1156.321 1315.357 C 1148.558 1299.454, 1135.520 1290.039, 1120.220 1289.286 C 1113.609 1288.961, 1111.300 1289.333, 1104.147 1291.874 M 1109.365 1307.089 C 1107.640 1307.589, 1104.066 1309.461, 1101.421 1311.249 C 1091.930 1317.666, 1089.468 1328.784, 1094.649 1341.829 C 1101.556 1359.221, 1112.950 1367.721, 1125.572 1364.896 C 1140.938 1361.458, 1147.929 1346.581, 1141.836 1330.288 C 1134.860 1311.636, 1122.975 1303.144, 1109.365 1307.089 M 1827.375 1338.611 C 1816.994 1347.197, 1806.505 1355.859, 1804.068 1357.861 C 1801.630 1359.862, 1798.255 1362.664, 1796.568 1364.086 C 1794.880 1365.509, 1792.375 1367.598, 1791 1368.729 C 1777.780 1379.605, 1773.463 1383.280, 1773.250 1383.843 C 1773.112 1384.206, 1775.137 1385.610, 1777.750 1386.963 C 1780.362 1388.315, 1784.141 1390.429, 1786.147 1391.659 L 1789.795 1393.896 1797.783 1386.948 C 1802.176 1383.127, 1805.973 1380, 1806.221 1380 C 1806.469 1380, 1813.092 1383.600, 1820.938 1388 C 1828.784 1392.400, 1835.608 1396, 1836.102 1396 C 1836.596 1396, 1836.991 1396.112, 1836.980 1396.250 C 1836.970 1396.388, 1836.310 1400.100, 1835.515 1404.500 C 1833.005 1418.392, 1832.840 1417.919, 1841.914 1422.770 C 1846.266 1425.096, 1850.217 1427, 1850.693 1427 C 1851.503 1427, 1852.829 1419.022, 1855.056 1400.750 C 1855.960 1393.331, 1856.844 1386.217, 1858.972 1369.250 C 1860.656 1355.824, 1863.007 1338.622, 1863.600 1335.387 C 1864.157 1332.351, 1863.960 1332.160, 1855.595 1327.637 C 1850.878 1325.087, 1846.846 1323, 1846.635 1323 C 1846.424 1323, 1837.757 1330.025, 1827.375 1338.611 M 1434.500 1330.039 C 1431.750 1330.480, 1423.875 1331.576, 1417 1332.474 C 1410.125 1333.372, 1401.575 1334.503, 1398 1334.987 C 1394.425 1335.471, 1387.225 1336.373, 1382 1336.992 C 1376.775 1337.612, 1371.037 1338.337, 1369.250 1338.604 L 1366 1339.091 1366.015 1809.795 C 1366.024 2068.683, 1366.361 2280.950, 1366.765 2281.500 C 1367.169 2282.050, 1370.650 2285.188, 1374.500 2288.474 C 1386.123 2298.392, 1409.790 2321.985, 1416.660 2330.500 C 1420.210 2334.900, 1424.654 2341.650, 1426.537 2345.500 L 1429.961 2352.500 1430.231 1953.500 C 1430.491 1567.706, 1430.561 1554.399, 1432.345 1551.454 C 1435.579 1546.115, 1440.153 1543.757, 1447.407 1543.689 C 1452.881 1543.637, 1454.341 1544.023, 1457.342 1546.312 C 1459.277 1547.788, 1461.904 1550.459, 1463.180 1552.248 L 1465.500 1555.500 1466 1953.886 C 1466.430 2296.326, 1466.696 2351.726, 1467.895 2348.386 C 1469.438 2344.090, 1474.737 2335.916, 1480.464 2329 C 1488.318 2319.515, 1515.857 2292.227, 1524.954 2284.917 L 1529 2281.665 1529 1810.378 L 1529 1339.091 1525.750 1338.594 C 1523.963 1338.321, 1518.787 1337.626, 1514.250 1337.049 C 1505.989 1335.999, 1500.906 1335.346, 1478.500 1332.456 C 1471.900 1331.605, 1463.763 1330.479, 1460.418 1329.954 C 1453.370 1328.848, 1441.688 1328.887, 1434.500 1330.039 M 1010.171 1342.277 L 1001.841 1347.500 1002.537 1367.250 C 1002.919 1378.112, 1002.900 1387, 1002.495 1387 C 1002.089 1387, 994.030 1382.983, 984.585 1378.072 L 967.413 1369.145 959.032 1374.322 C 954.423 1377.170, 950.497 1379.974, 950.308 1380.552 C 950.008 1381.472, 966.682 1389.920, 995.086 1403.241 L 1003.673 1407.268 1013.586 1423.113 C 1019.039 1431.827, 1023.889 1438.967, 1024.364 1438.979 C 1024.839 1438.990, 1028.523 1436.946, 1032.550 1434.436 L 1039.873 1429.872 1036.949 1424.913 C 1035.341 1422.186, 1030.869 1415.003, 1027.013 1408.950 L 1020 1397.946 1020 1367.473 C 1020 1350.713, 1019.663 1337.012, 1019.250 1337.027 C 1018.837 1337.042, 1014.752 1339.404, 1010.171 1342.277 M 1842.854 1347.688 C 1842.659 1348.134, 1839.575 1350.972, 1836 1353.994 C 1832.425 1357.015, 1829.275 1359.715, 1829 1359.994 C 1828.725 1360.272, 1826.397 1362.390, 1823.826 1364.700 L 1819.153 1368.900 1825.326 1372.310 C 1828.722 1374.186, 1833.143 1376.650, 1835.151 1377.787 L 1838.801 1379.854 1839.852 1373.677 C 1843.564 1351.853, 1844.155 1347.822, 1843.708 1347.375 C 1843.433 1347.100, 1843.049 1347.241, 1842.854 1347.688 M 1329.618 1351 C 1326.213 1360.649, 1305.617 1384.894, 1284.547 1404.058 C 1259.139 1427.165, 1242.705 1438.523, 1227.520 1443.469 C 1225.846 1444.014, 1226.174 1444.399, 1229.639 1445.950 C 1238.526 1449.929, 1254.743 1461.990, 1260.499 1468.903 C 1261.600 1470.224, 1263.513 1473.142, 1264.750 1475.387 L 1267 1479.469 1267 1577.545 L 1267 1675.620 1212.949 1729.719 L 1158.899 1783.817 1181.355 1806.256 L 1203.811 1828.695 1267.408 1765.092 L 1331.006 1701.489 1330.753 1524.994 C 1330.605 1421.489, 1330.135 1349.534, 1329.618 1351 M 1565 1525.080 L 1565 1701.494 1628.704 1765.204 L 1692.407 1828.913 1714.873 1806.379 L 1737.338 1783.845 1683.150 1729.650 L 1628.962 1675.455 1629.231 1576.477 L 1629.500 1477.500 1631.904 1474 C 1638.112 1464.963, 1654.835 1451.318, 1665.724 1446.406 C 1668.048 1445.358, 1669.960 1444.213, 1669.974 1443.861 C 1669.988 1443.510, 1668.520 1442.945, 1666.712 1442.606 C 1646.445 1438.804, 1583.034 1382.180, 1568.853 1355.221 C 1567.205 1352.087, 1565.663 1349.330, 1565.428 1349.094 C 1565.192 1348.859, 1565 1428.053, 1565 1525.080 M 1904.931 1361.130 C 1904.304 1362.301, 1894.689 1377.039, 1883.565 1393.880 C 1872.440 1410.721, 1862.161 1426.366, 1860.722 1428.646 L 1858.106 1432.792 1876.803 1445.097 C 1908.486 1465.947, 1910.125 1467, 1910.890 1467 C 1911.298 1467, 1913.444 1464.159, 1915.657 1460.687 L 1919.682 1454.374 1901.389 1442.437 C 1891.328 1435.872, 1883.075 1430.146, 1883.048 1429.713 C 1883.004 1428.993, 1901.848 1399.991, 1916.133 1378.793 C 1919.360 1374.004, 1922 1369.677, 1922 1369.177 C 1922 1368.207, 1908.360 1359, 1906.924 1359 C 1906.454 1359, 1905.557 1359.958, 1904.931 1361.130 M 936.850 1389.333 C 926.897 1396.673, 899.993 1416.342, 893.137 1421.290 C 889.487 1423.924, 886.379 1426.426, 886.230 1426.849 C 885.877 1427.857, 893.862 1439, 894.938 1439 C 895.393 1439, 900.114 1435.850, 905.430 1432 C 910.746 1428.150, 915.472 1425, 915.932 1425 C 916.393 1425, 917.527 1426.155, 918.451 1427.566 C 919.376 1428.977, 920.773 1430.890, 921.556 1431.816 C 922.931 1433.443, 930.601 1444.026, 949.500 1470.373 C 954.450 1477.274, 959.061 1482.938, 959.747 1482.960 C 961.140 1483.005, 973.314 1474.329, 973.828 1472.925 C 974.113 1472.148, 970.646 1466.424, 969.028 1465 C 968.716 1464.725, 964.091 1458.425, 958.752 1451 C 953.412 1443.575, 945.209 1432.240, 940.522 1425.812 C 935.835 1419.384, 932.009 1413.759, 932.020 1413.312 C 932.032 1412.865, 936.321 1409.396, 941.553 1405.602 C 946.784 1401.809, 951.289 1398.342, 951.563 1397.898 C 952.058 1397.098, 943.958 1385.001, 943 1385.110 C 942.725 1385.141, 939.957 1387.041, 936.850 1389.333 M 867.750 1441.650 C 864.038 1444.728, 861 1447.653, 861 1448.150 C 861 1448.647, 864.263 1452.999, 868.250 1457.821 C 872.237 1462.644, 877.075 1468.563, 879 1470.976 C 895.349 1491.466, 916.241 1516.500, 916.992 1516.500 C 917.818 1516.500, 921.656 1513.565, 928.854 1507.430 L 931.283 1505.360 910.582 1479.930 C 899.197 1465.944, 889.113 1453.600, 888.174 1452.500 C 887.235 1451.400, 883.868 1447.237, 880.691 1443.250 C 877.514 1439.263, 874.821 1436.012, 874.707 1436.027 C 874.593 1436.042, 871.462 1438.572, 867.750 1441.650 M 1938.180 1446.127 C 1935.804 1449.468, 1933.645 1452.762, 1933.381 1453.448 C 1932.871 1454.778, 1958.434 1474.377, 1959.951 1473.820 C 1960.430 1473.644, 1962.951 1470.598, 1965.555 1467.052 L 1970.288 1460.604 1966.894 1457.755 C 1963.650 1455.033, 1943.088 1439.971, 1942.691 1440.027 C 1942.586 1440.041, 1940.556 1442.786, 1938.180 1446.127 M 2023.500 1449.857 C 2020.750 1451.394, 2010.625 1456.942, 2001 1462.186 C 1991.375 1467.430, 1981.250 1472.968, 1978.500 1474.492 C 1967.375 1480.657, 1961.149 1484.059, 1954.170 1487.786 C 1950.138 1489.939, 1946.802 1492.082, 1946.755 1492.548 C 1946.709 1493.015, 1949.875 1496.053, 1953.790 1499.300 L 1960.908 1505.203 1969.940 1500.034 C 1975.356 1496.935, 1979.479 1495.168, 1980.236 1495.622 C 1982.119 1496.749, 2004.805 1515.876, 2005.399 1516.837 C 2005.681 1517.293, 2004.386 1522.129, 2002.522 1527.583 C 1999.269 1537.099, 1999.206 1537.561, 2000.955 1539 C 2001.957 1539.825, 2005.313 1542.702, 2008.413 1545.392 C 2011.513 1548.083, 2014.335 1549.999, 2014.684 1549.649 C 2015.033 1549.300, 2018.119 1540.574, 2021.542 1530.257 C 2036.412 1485.434, 2045.069 1458.743, 2044.795 1458.564 C 2044.633 1458.459, 2041.437 1455.814, 2037.693 1452.686 C 2033.949 1449.559, 2030.349 1447.014, 2029.693 1447.031 C 2029.037 1447.048, 2026.250 1448.320, 2023.500 1449.857 M 2018.384 1472.250 C 2003.792 1480.288, 1995.048 1485.636, 1995.087 1486.500 C 1995.111 1487.050, 1998.851 1490.500, 2003.396 1494.167 L 2011.661 1500.833 2013.729 1495.167 C 2014.866 1492.050, 2017.398 1485.112, 2019.355 1479.750 C 2021.312 1474.388, 2022.814 1470, 2022.691 1470 C 2022.569 1470, 2020.631 1471.013, 2018.384 1472.250 M 837 1471.897 C 830.504 1473.214, 823.563 1477.464, 816.306 1484.568 C 807.486 1493.201, 804.726 1498.761, 804.675 1508 C 804.614 1519.203, 810.869 1527.421, 821.921 1530.655 C 829.505 1532.874, 835.217 1531.419, 852.372 1522.894 C 860.002 1519.102, 867.478 1516, 868.986 1516 C 870.615 1516, 872.797 1517.070, 874.364 1518.636 C 878.853 1523.125, 877.518 1531.328, 871.219 1537.960 C 865.150 1544.350, 855.621 1545.879, 848.547 1541.597 L 844.594 1539.205 838.835 1545.352 C 835.667 1548.734, 833.059 1552.016, 833.038 1552.646 C 832.996 1553.928, 840.778 1559.031, 845.716 1560.959 C 850.888 1562.978, 863.526 1561.935, 869.500 1558.995 C 876.106 1555.745, 889.978 1541.903, 892.838 1535.708 C 897.802 1524.954, 896.231 1514.810, 888.223 1505.903 C 877.721 1494.222, 865.300 1494.102, 845 1505.487 C 838.319 1509.234, 829.647 1513, 827.699 1513 C 825.311 1513, 821 1508.988, 821 1506.765 C 821 1502.341, 827.351 1494.023, 833.065 1490.965 C 836.157 1489.311, 842.531 1489.558, 845.214 1491.437 C 846.441 1492.297, 847.740 1493, 848.100 1493 C 849.009 1493, 861 1480.778, 861 1479.852 C 861 1478.722, 854.908 1474.469, 851.500 1473.221 C 847.180 1471.638, 841.041 1471.078, 837 1471.897 M 2051.721 1524.779 L 2019.974 1556.537 2025.766 1562.269 C 2028.952 1565.421, 2031.872 1568, 2032.257 1568 C 2032.641 1568, 2041.853 1559.264, 2052.728 1548.587 C 2063.602 1537.910, 2072.571 1529.247, 2072.658 1529.337 C 2072.745 1529.427, 2071.339 1535.350, 2069.534 1542.500 C 2067.729 1549.650, 2064.172 1564.040, 2061.629 1574.478 L 2057.006 1593.455 2063.710 1600.212 L 2070.415 1606.968 2102.207 1575.263 L 2133.999 1543.557 2128.281 1537.778 C 2125.136 1534.600, 2122.176 1532, 2121.704 1532 C 2121.232 1532, 2111.997 1540.741, 2101.181 1551.425 C 2090.366 1562.109, 2081.366 1570.699, 2081.182 1570.516 C 2080.842 1570.175, 2082.389 1563.628, 2091.074 1528.672 C 2093.783 1517.767, 2096 1508.079, 2096 1507.143 C 2096 1506.208, 2093.180 1502.647, 2089.734 1499.232 L 2083.467 1493.021 2051.721 1524.779 M 769.500 1534.900 C 766.750 1536.485, 761.575 1540.874, 758 1544.653 C 747.354 1555.909, 732.602 1572.162, 731.090 1574.301 C 729.421 1576.661, 726.286 1573.499, 765.500 1609 C 774.300 1616.967, 783.525 1625.364, 786 1627.661 C 788.475 1629.958, 791.715 1632.788, 793.199 1633.951 L 795.899 1636.065 800.167 1631.435 C 809.131 1621.710, 808.794 1623.145, 803.320 1618.008 C 800.669 1615.520, 794.531 1609.894, 789.681 1605.507 L 780.862 1597.529 785.857 1592.764 C 790.753 1588.094, 790.978 1588, 797.259 1588 C 800.783 1588, 806.104 1588.425, 809.083 1588.945 C 812.062 1589.465, 819.114 1590.637, 824.753 1591.549 L 835.007 1593.209 839.364 1588.354 C 846.655 1580.232, 849.270 1576.937, 848.799 1576.466 C 848.270 1575.937, 835.630 1573.625, 821.409 1571.457 C 813.885 1570.310, 810.196 1570.177, 806.909 1570.935 C 804.484 1571.494, 802.213 1571.962, 801.862 1571.976 C 801.511 1571.989, 802.287 1569.412, 803.588 1566.250 C 807.615 1556.458, 806.353 1548.834, 799.432 1541.136 C 790.869 1531.612, 779.366 1529.215, 769.500 1534.900 M 772.641 1553.068 C 769.796 1555.306, 760.845 1564.567, 756.606 1569.658 L 753.976 1572.817 759.238 1577.831 C 762.132 1580.589, 765.625 1583.824, 767 1585.020 L 769.500 1587.193 776.412 1579.847 C 790.326 1565.058, 791.900 1560.700, 785.600 1554.400 C 781.535 1550.335, 776.741 1549.842, 772.641 1553.068 M 2143.807 1569.271 C 2140.338 1572.170, 2127.383 1582.632, 2115.017 1592.521 C 2090.134 1612.419, 2088.930 1613.394, 2084.698 1617.059 L 2081.743 1619.619 2094.122 1635.007 C 2117.088 1663.557, 2121.847 1667.574, 2132.500 1667.404 C 2148.574 1667.148, 2160.723 1652.923, 2156.786 1638.969 L 2156.072 1636.439 2162.786 1636.797 C 2170.743 1637.222, 2175.136 1635.664, 2180.168 1630.632 C 2186.318 1624.482, 2187.732 1614.228, 2183.632 1605.500 C 2180.501 1598.835, 2153.085 1564, 2150.971 1564 C 2150.499 1564, 2147.276 1566.372, 2143.807 1569.271 M 2145.487 1592.116 C 2142.744 1594.385, 2139.440 1597.077, 2138.144 1598.098 L 2135.787 1599.955 2142.976 1608.970 C 2146.930 1613.928, 2151.313 1618.888, 2152.717 1619.992 C 2156.434 1622.916, 2161.310 1622.588, 2165.151 1619.156 C 2169.439 1615.325, 2169.385 1611.471, 2164.958 1605.246 C 2160.946 1599.604, 2151.978 1588.606, 2151.096 1588.246 C 2150.754 1588.106, 2148.230 1589.847, 2145.487 1592.116 M 710.034 1600.213 C 707.827 1603.121, 701.225 1612.025, 695.361 1620 C 689.498 1627.975, 682.522 1637.425, 679.860 1641 C 677.198 1644.575, 675.015 1647.778, 675.010 1648.118 C 675.004 1648.458, 680.063 1652.476, 686.250 1657.047 C 701.511 1668.321, 717.191 1679.917, 731.051 1690.181 C 746.602 1701.697, 746.900 1701.870, 747.967 1700 C 748.438 1699.175, 752.166 1694, 756.253 1688.500 C 760.339 1683, 767.643 1673.100, 772.484 1666.500 C 777.324 1659.900, 782.621 1652.775, 784.255 1650.668 L 787.227 1646.835 783.863 1643.978 C 778.318 1639.267, 774.080 1637.253, 773.088 1638.858 C 771.122 1642.039, 749.279 1671.559, 747 1674.115 L 744.500 1676.919 736 1670.455 C 731.325 1666.900, 727.361 1663.578, 727.192 1663.072 C 727.023 1662.566, 728.868 1659.530, 731.293 1656.326 C 735.566 1650.680, 740.126 1644.548, 748.718 1632.894 L 752.850 1627.288 746.974 1623.144 C 743.742 1620.865, 740.674 1619, 740.155 1619 C 739.637 1619, 735.228 1624.440, 730.357 1631.089 C 725.485 1637.738, 719.666 1645.565, 717.425 1648.484 L 713.349 1653.791 706.175 1648.362 C 702.229 1645.376, 699 1642.670, 699 1642.347 C 699 1642.025, 705.275 1633.289, 712.944 1622.935 L 726.889 1604.108 721.709 1600.304 C 718.860 1598.212, 715.971 1596.146, 715.288 1595.713 C 714.463 1595.191, 712.700 1596.701, 710.034 1600.213 M 998.981 1609.731 C 996.058 1616.754, 992.671 1624.750, 991.454 1627.500 C 990.237 1630.250, 987.104 1637.450, 984.491 1643.500 C 981.878 1649.550, 978.410 1657.425, 976.783 1661 C 975.156 1664.575, 973.222 1668.850, 972.485 1670.500 C 971.748 1672.150, 969.088 1677.939, 966.573 1683.364 C 964.058 1688.788, 962 1693.353, 962 1693.508 C 962 1693.964, 946.042 1727.023, 936.177 1747 C 926.932 1765.723, 911.647 1795.440, 903.258 1811 C 889.793 1835.975, 883.033 1848.186, 877.333 1857.833 C 874.950 1861.866, 873 1865.362, 873 1865.603 C 873 1865.843, 871.851 1867.860, 870.446 1870.085 C 869.042 1872.310, 867.076 1875.564, 866.077 1877.315 C 837.532 1927.384, 791.207 1993.906, 756.659 2034.436 C 739.971 2054.015, 707.792 2085.940, 692.182 2098.405 C 671.141 2115.207, 650.491 2127.706, 627 2137.856 C 624.212 2139.061, 629.076 2138.756, 642.720 2136.870 C 661.567 2134.265, 737.596 2134.316, 769.477 2136.954 C 802.086 2139.653, 808.267 2140.219, 820 2141.581 C 844.967 2144.478, 850.607 2145.218, 856.500 2146.371 L 862.500 2147.544 836 2174.084 C 791.180 2218.972, 768.196 2236.966, 733.034 2254.697 C 723.978 2259.264, 716.831 2263, 717.153 2263 C 717.475 2263, 721.509 2262.351, 726.119 2261.557 C 751.190 2257.240, 763.832 2256.554, 817.500 2256.599 C 862.678 2256.637, 872.877 2256.935, 895.243 2258.872 C 909.402 2260.098, 922.816 2261.416, 925.053 2261.801 L 929.120 2262.500 913.250 2278.500 C 875.074 2316.990, 844.668 2340.517, 810.261 2358.188 C 803.793 2361.510, 798.275 2364.466, 798 2364.758 C 797.725 2365.049, 799.075 2364.983, 801 2364.612 C 820.794 2360.792, 831.243 2359.515, 859.500 2357.464 C 909.686 2353.820, 995.858 2356.824, 1045 2363.930 C 1048.575 2364.447, 1055.100 2365.368, 1059.500 2365.977 C 1070.834 2367.545, 1085.719 2369.895, 1091 2370.950 C 1093.475 2371.444, 1098.425 2372.374, 1102 2373.015 C 1131.099 2378.239, 1170.113 2387.903, 1197.500 2396.672 C 1216.374 2402.716, 1234.789 2409.063, 1242.500 2412.183 C 1245.250 2413.296, 1248.400 2414.556, 1249.500 2414.983 C 1255.807 2417.434, 1261.320 2419.753, 1267.823 2422.691 C 1271.851 2424.511, 1275.353 2426, 1275.606 2426 C 1275.858 2426, 1283.588 2429.679, 1292.783 2434.176 C 1340.276 2457.404, 1383.311 2486.495, 1415.306 2517 C 1420.209 2521.675, 1424.665 2525.665, 1425.208 2525.866 C 1427.961 2526.886, 1417.856 2512.345, 1405.468 2497.462 C 1371.705 2456.898, 1319.262 2415.452, 1262.500 2384.475 C 1250.923 2378.157, 1233.121 2369.446, 1215.500 2361.476 C 1199.930 2354.434, 1168.686 2343.102, 1148 2336.993 C 1143.875 2335.775, 1138.475 2334.168, 1136 2333.422 C 1127.009 2330.713, 1098.670 2324.243, 1086.500 2322.121 C 1063.351 2318.083, 1063.109 2318.049, 1037 2315.055 C 1019.777 2313.080, 988.885 2311.800, 966.779 2312.145 L 944.058 2312.500 949.279 2307.031 C 952.151 2304.022, 954.736 2301.322, 955.024 2301.031 C 957.652 2298.369, 966.916 2285.643, 971.897 2277.852 C 976.318 2270.936, 978.551 2268.297, 979.782 2268.533 C 980.727 2268.714, 985.100 2269.377, 989.500 2270.005 C 993.900 2270.633, 999.525 2271.544, 1002 2272.029 C 1004.475 2272.513, 1010.550 2273.640, 1015.500 2274.533 C 1027.656 2276.727, 1043.098 2279.803, 1051 2281.605 C 1063.638 2284.488, 1065.648 2284.962, 1080.500 2288.572 C 1114 2296.713, 1157.284 2310.227, 1186 2321.510 C 1187.925 2322.266, 1193.775 2324.546, 1199 2326.577 C 1204.225 2328.607, 1211.795 2331.783, 1215.823 2333.634 C 1219.851 2335.485, 1223.327 2337, 1223.548 2337 C 1225.396 2337, 1259.659 2353.885, 1277 2363.341 C 1328.469 2391.409, 1370.564 2422.684, 1408.993 2461.404 C 1416.415 2468.882, 1422.819 2475, 1423.226 2475 C 1424.349 2475, 1416.009 2461.295, 1408.083 2450.117 C 1394.698 2431.239, 1384.849 2419.816, 1363.525 2398.442 C 1329.875 2364.711, 1297.870 2339.590, 1251.684 2310.655 C 1244.085 2305.895, 1237.664 2302, 1237.414 2302 C 1237.164 2302, 1235.282 2300.951, 1233.230 2299.669 C 1224.478 2294.201, 1195.471 2279.281, 1178.492 2271.514 C 1167.452 2266.465, 1138.420 2254.515, 1129.703 2251.434 C 1119.260 2247.742, 1094.247 2239.506, 1089 2238.032 C 1086.525 2237.337, 1083.375 2236.367, 1082 2235.878 C 1079.441 2234.966, 1054.303 2228.417, 1048 2227.020 C 995.729 2215.430, 945.768 2209.415, 895.811 2208.697 L 882.121 2208.500 887.103 2203 C 894.214 2195.150, 905.891 2179.476, 913.700 2167.297 C 920.227 2157.119, 920.495 2156.850, 923.456 2157.475 C 925.130 2157.829, 928.975 2158.584, 932 2159.152 C 940.558 2160.760, 944.935 2161.671, 952.500 2163.420 C 956.350 2164.310, 961.750 2165.525, 964.500 2166.120 C 974.186 2168.216, 976.663 2168.820, 994.500 2173.435 C 1052.373 2188.412, 1115.660 2210.165, 1161 2230.666 C 1176.024 2237.459, 1188.021 2243.222, 1203.500 2251.082 C 1221.329 2260.136, 1223.997 2261.570, 1241 2271.241 C 1249.937 2276.323, 1284.451 2297.822, 1287.500 2300.206 C 1288.050 2300.636, 1295.475 2306.016, 1304 2312.162 C 1334.744 2334.328, 1352.223 2349.192, 1380 2376.795 C 1391.275 2388, 1403.200 2400.310, 1406.500 2404.150 C 1409.800 2407.991, 1414.424 2413.241, 1416.776 2415.817 L 1421.052 2420.500 1418.776 2415.500 C 1408.973 2393.966, 1388.723 2364.528, 1363.057 2334.500 C 1348.726 2317.734, 1310.863 2280.404, 1295 2267.401 C 1293.075 2265.823, 1291.275 2264.279, 1291 2263.969 C 1290.067 2262.917, 1270.012 2246.910, 1261.736 2240.610 C 1250.716 2232.223, 1222.437 2212.524, 1212.500 2206.313 C 1202.351 2199.969, 1190.518 2192.804, 1186 2190.268 C 1184.075 2189.187, 1177.642 2185.543, 1171.705 2182.169 C 1125.881 2156.128, 1057.006 2127.979, 1004.500 2113.832 C 1002.300 2113.240, 998.475 2112.174, 996 2111.464 C 986.873 2108.847, 956.611 2101.791, 947 2100.040 C 943.425 2099.388, 937.575 2098.255, 934 2097.522 C 907.599 2092.109, 862.690 2086.721, 824.750 2084.415 C 818.837 2084.055, 814 2083.435, 814 2083.036 C 814 2082.636, 814.949 2081.453, 816.109 2080.405 C 819.523 2077.322, 829.290 2063.273, 835.508 2052.500 C 841.136 2042.751, 857.839 2010.002, 861.775 2001 C 864.895 1993.864, 870.932 1980.162, 874.553 1972 C 878.177 1963.830, 896.092 1919.571, 899.042 1911.500 C 900.047 1908.750, 902.512 1902.225, 904.521 1897 C 906.529 1891.775, 909.743 1883.225, 911.663 1878 C 913.583 1872.775, 916.731 1864.225, 918.659 1859 C 920.587 1853.775, 923.677 1845.225, 925.525 1840 C 936.585 1808.730, 939.469 1800.496, 942.510 1791.500 C 944.369 1786, 949.237 1771.600, 953.328 1759.500 C 964.969 1725.064, 972.831 1700.855, 990.511 1645 C 992.339 1639.225, 995.475 1629.100, 997.479 1622.500 C 999.483 1615.900, 1002.018 1607.635, 1003.112 1604.134 C 1004.206 1600.633, 1004.920 1597.587, 1004.698 1597.365 C 1004.477 1597.143, 1001.904 1602.708, 998.981 1609.731 M 1893.011 1598.083 C 1893.018 1598.862, 1894.411 1604, 1896.107 1609.500 C 1897.803 1615, 1899.598 1620.963, 1900.095 1622.750 C 1900.593 1624.537, 1901.412 1627.463, 1901.915 1629.250 C 1902.907 1632.770, 1908.351 1650.655, 1912.342 1663.500 C 1913.709 1667.900, 1915.790 1674.650, 1916.966 1678.500 C 1918.142 1682.350, 1919.498 1686.625, 1919.980 1688 C 1920.462 1689.375, 1922.963 1697.250, 1925.539 1705.500 C 1932.044 1726.333, 1960.623 1812.205, 1967.307 1831 C 1978.521 1862.532, 1988.613 1890.165, 1993.421 1902.500 C 2002.324 1925.339, 2014.931 1956.730, 2017.519 1962.500 C 2018.259 1964.150, 2022.318 1973.375, 2026.539 1983 C 2033.601 1999.101, 2048.577 2029.950, 2053.968 2039.500 C 2064.401 2057.984, 2069.244 2065.380, 2078.612 2077.135 L 2083.900 2083.770 2074.200 2084.406 C 2059.711 2085.356, 2040.817 2086.908, 2029 2088.118 C 2019.842 2089.056, 2011.612 2090.153, 1984.500 2094.050 C 1973.582 2095.619, 1966.556 2096.798, 1962 2097.825 C 1959.525 2098.383, 1954.800 2099.341, 1951.500 2099.955 C 1940.764 2101.951, 1911.220 2108.820, 1902 2111.464 C 1899.525 2112.174, 1895.700 2113.239, 1893.500 2113.831 C 1879.143 2117.696, 1847.792 2127.796, 1833.733 2133.086 C 1817.145 2139.327, 1803.040 2145.075, 1781.015 2154.567 C 1774.808 2157.242, 1737.035 2176.093, 1728.500 2180.775 C 1707.089 2192.521, 1669.099 2216.103, 1658.500 2224.227 C 1657.950 2224.648, 1654.575 2227.103, 1651 2229.681 C 1643.642 2234.989, 1626.265 2247.977, 1623.397 2250.313 C 1592.800 2275.237, 1577.546 2289.191, 1552.500 2315.174 C 1521.866 2346.953, 1495.191 2382.791, 1480.635 2411.725 C 1475.052 2422.823, 1475.479 2422.639, 1486.973 2408.996 C 1501.981 2391.184, 1529.073 2364.279, 1550 2346.404 C 1582.771 2318.412, 1618.768 2293.182, 1659 2270.006 C 1675.413 2260.551, 1713.761 2240.987, 1731 2233.273 C 1743.308 2227.766, 1782.852 2211.322, 1787 2209.986 C 1788.375 2209.544, 1792.650 2207.990, 1796.500 2206.534 C 1800.350 2205.077, 1807.325 2202.608, 1812 2201.045 C 1816.675 2199.483, 1821.625 2197.739, 1823 2197.171 C 1826.669 2195.654, 1861.413 2184.956, 1878.500 2180.083 C 1886.611 2177.770, 1919.842 2169.141, 1925 2168.009 C 1926.925 2167.587, 1932.100 2166.487, 1936.500 2165.565 C 1940.900 2164.643, 1946.975 2163.275, 1950 2162.525 C 1953.025 2161.775, 1957.975 2160.688, 1961 2160.110 C 1964.025 2159.533, 1968.887 2158.546, 1971.804 2157.917 C 1974.721 2157.289, 1977.240 2156.938, 1977.401 2157.137 C 1977.563 2157.337, 1982.009 2164.078, 1987.281 2172.118 C 1997.114 2187.113, 2003.839 2195.905, 2011.860 2204.250 L 2016.425 2209 1999.496 2209 C 1955.388 2209, 1903.485 2215.254, 1850 2227.013 C 1844.420 2228.240, 1816.125 2235.719, 1809 2237.851 C 1783.381 2245.514, 1756.254 2255.359, 1735.720 2264.443 C 1732.542 2265.849, 1729.730 2267, 1729.473 2267 C 1728.120 2267, 1691.060 2285.007, 1680 2291.039 C 1658.054 2303.006, 1647.899 2309.142, 1624.500 2324.567 C 1612.907 2332.210, 1590.890 2347.973, 1589 2349.982 C 1588.725 2350.275, 1584 2354.084, 1578.500 2358.447 C 1573 2362.810, 1568.275 2366.632, 1568 2366.940 C 1567.725 2367.248, 1563.900 2370.628, 1559.500 2374.451 C 1536.971 2394.025, 1508.477 2424.405, 1492.770 2445.597 C 1485.413 2455.522, 1473.773 2474.106, 1474.473 2474.807 C 1474.715 2475.048, 1480.895 2469.199, 1488.206 2461.807 C 1495.518 2454.416, 1504.200 2445.894, 1507.500 2442.869 C 1513.334 2437.523, 1534.687 2419.726, 1540.575 2415.303 C 1583.380 2383.146, 1615.606 2364.103, 1670.500 2338.526 C 1679.634 2334.270, 1713.801 2320.476, 1725 2316.523 C 1743.242 2310.084, 1771.686 2300.851, 1782 2298.021 C 1783.925 2297.493, 1789.325 2295.963, 1794 2294.621 C 1816.496 2288.164, 1853.017 2279.877, 1882.500 2274.539 C 1887.450 2273.643, 1893.525 2272.518, 1896 2272.039 C 1901.113 2271.050, 1913.159 2269.198, 1917.204 2268.780 C 1919.615 2268.530, 1920.538 2269.479, 1925.704 2277.511 C 1933.860 2290.191, 1938.096 2295.689, 1951.123 2310.500 C 1952.877 2312.494, 1952.816 2312.499, 1930.691 2312.144 C 1909.065 2311.798, 1878.139 2313.090, 1861 2315.055 C 1834.875 2318.051, 1834.971 2318.037, 1811.500 2322.117 C 1808.200 2322.691, 1799.425 2324.530, 1792 2326.205 C 1784.575 2327.879, 1776.700 2329.616, 1774.500 2330.063 C 1772.300 2330.511, 1767.350 2331.814, 1763.500 2332.959 C 1759.650 2334.104, 1754.700 2335.548, 1752.500 2336.167 C 1746.611 2337.824, 1717.222 2347.507, 1712 2349.510 C 1682.080 2360.991, 1642.357 2379.448, 1627.770 2388.648 C 1625.718 2389.941, 1623.798 2391, 1623.503 2391 C 1621.327 2391, 1581.423 2417.355, 1565.500 2429.308 C 1536.409 2451.145, 1506.182 2479.614, 1488.847 2501.500 C 1480.139 2512.495, 1472 2524.159, 1472 2525.643 C 1472 2526.091, 1488.462 2511.568, 1492 2507.998 C 1493.985 2505.995, 1511.131 2492.115, 1518.500 2486.547 C 1541.500 2469.166, 1569.860 2451.813, 1600 2436.680 C 1667.118 2402.981, 1751.198 2378.055, 1838.500 2365.977 C 1842.900 2365.368, 1849.425 2364.447, 1853 2363.930 C 1921.072 2354.087, 2035.335 2353.385, 2085 2362.505 C 2101.261 2365.492, 2101.246 2365.498, 2090.500 2359.956 C 2064.664 2346.630, 2037.052 2327.684, 2017.034 2309.546 C 2014.578 2307.321, 2009.853 2303.054, 2006.534 2300.064 C 2003.215 2297.074, 1993.300 2287.411, 1984.500 2278.590 L 1968.500 2262.552 1973.500 2261.792 C 1976.250 2261.375, 1986.600 2260.334, 1996.500 2259.479 C 2057.588 2254.207, 2134.764 2255.282, 2174.438 2261.957 C 2177.705 2262.507, 2180.491 2262.842, 2180.631 2262.703 C 2180.770 2262.563, 2176.073 2260.222, 2170.192 2257.500 C 2157.878 2251.801, 2143.004 2243.245, 2131.500 2235.243 C 2124.306 2230.239, 2106.257 2216.498, 2105 2215.069 C 2104.725 2214.756, 2100.900 2211.372, 2096.500 2207.548 C 2092.100 2203.724, 2076.467 2188.649, 2061.760 2174.048 L 2035.019 2147.500 2038.260 2146.819 C 2043.215 2145.779, 2088.903 2140.333, 2103 2139.103 C 2109.875 2138.503, 2122.025 2137.453, 2130 2136.770 C 2150.216 2135.039, 2242.317 2135.047, 2254.500 2136.781 C 2259.450 2137.486, 2265.525 2138.269, 2268 2138.521 L 2272.500 2138.978 2269 2137.300 C 2267.075 2136.377, 2260.325 2133.128, 2254 2130.080 C 2243.745 2125.139, 2216.738 2108.135, 2211.500 2103.322 C 2210.400 2102.311, 2207.025 2099.538, 2204 2097.160 C 2194.471 2089.669, 2172.777 2069.447, 2163.363 2059.279 C 2130.043 2023.291, 2103.958 1989.885, 2074.520 1945.500 C 2062.483 1927.352, 2037 1887.352, 2037 1886.606 C 2037 1886.438, 2034.594 1882.295, 2031.653 1877.400 C 2028.713 1872.505, 2025.181 1866.475, 2023.806 1864 C 2022.431 1861.525, 2017.481 1852.750, 2012.806 1844.500 C 2008.131 1836.250, 2002.152 1825.450, 1999.519 1820.500 C 1996.886 1815.550, 1993.499 1809.250, 1991.992 1806.500 C 1982.833 1789.787, 1955.948 1736.586, 1946.275 1716.033 C 1942.347 1707.689, 1925.267 1670.809, 1921.482 1662.500 C 1917.357 1653.446, 1911 1638.930, 1911 1638.567 C 1911 1638.335, 1909.496 1634.851, 1907.657 1630.823 C 1905.819 1626.795, 1901.924 1617.650, 1899.003 1610.500 C 1893.311 1596.569, 1892.994 1595.912, 1893.011 1598.083 M 2117.989 1614.154 C 2114.970 1616.534, 2111.380 1619.498, 2110.010 1620.741 C 2108.641 1621.983, 2107.178 1623, 2106.760 1623 C 2106.342 1623, 2106 1623.350, 2106 1623.777 C 2106 1624.799, 2121.223 1643.592, 2124.006 1646.005 C 2130.816 1651.912, 2141.500 1646.782, 2141.500 1637.604 C 2141.500 1634.096, 2140.568 1632.130, 2135.741 1625.459 C 2132.574 1621.082, 2128.519 1615.774, 2126.730 1613.664 L 2123.478 1609.827 2117.989 1614.154 M 2196.500 1647.135 C 2189.900 1651.604, 2177.338 1660.221, 2168.584 1666.284 C 2159.830 1672.347, 2149.030 1679.743, 2144.584 1682.719 C 2140.138 1685.695, 2136.500 1688.663, 2136.500 1689.315 C 2136.500 1690.734, 2145.212 1703.949, 2146.167 1703.979 C 2146.533 1703.991, 2152.255 1700.287, 2158.882 1695.750 C 2165.509 1691.213, 2181.787 1680.081, 2195.054 1671.012 C 2208.321 1661.944, 2219.352 1654.239, 2219.568 1653.891 C 2220.047 1653.115, 2210.238 1638.998, 2209.224 1639.005 C 2208.826 1639.008, 2203.100 1642.666, 2196.500 1647.135 M 1092.747 1712.753 C 1061.536 1743.968, 1036 1769.838, 1036 1770.243 C 1036 1770.648, 1064.640 1799.605, 1099.644 1834.593 L 1163.288 1898.207 1186.166 1875.328 L 1209.044 1852.450 1167.883 1811.271 L 1126.722 1770.092 1137.383 1759.546 C 1143.247 1753.746, 1148.247 1749, 1148.493 1749 C 1148.739 1749, 1151.949 1751.964, 1155.626 1755.587 L 1162.310 1762.174 1185.656 1738.844 L 1209.002 1715.514 1179.257 1685.757 C 1162.898 1669.391, 1149.508 1656, 1149.503 1656 C 1149.498 1656, 1123.957 1681.539, 1092.747 1712.753 M 1716.743 1685.757 L 1686.998 1715.514 1710.490 1738.990 L 1733.981 1762.465 1741.001 1755.499 L 1748.021 1748.533 1758.755 1759.267 L 1769.490 1770.001 1728.243 1811.257 L 1686.996 1852.513 1710.002 1875.502 L 1733.007 1898.491 1797.192 1834.306 L 1861.378 1770.120 1804.287 1713.060 C 1772.888 1681.677, 1747.037 1656, 1746.842 1656 C 1746.647 1656, 1733.102 1669.391, 1716.743 1685.757 M 664.225 1663.300 C 663.709 1663.960, 661.395 1667.776, 659.082 1671.779 L 654.878 1679.059 666.151 1691.779 C 672.352 1698.776, 677.667 1704.725, 677.963 1705 C 678.258 1705.275, 681.415 1708.875, 684.978 1713 C 688.541 1717.125, 693.352 1722.514, 695.669 1724.975 C 697.987 1727.436, 699.753 1729.581, 699.593 1729.740 C 699.324 1730.009, 684.599 1727.257, 674.752 1725.097 C 672.413 1724.584, 668.025 1723.680, 665 1723.088 C 661.975 1722.496, 655 1721.078, 649.500 1719.936 C 631.360 1716.170, 632.854 1716.005, 629.557 1722.147 C 627.978 1725.091, 625.827 1728.734, 624.779 1730.243 C 622.631 1733.335, 623.127 1735, 626.194 1735 C 627.336 1735, 633.722 1736.089, 640.385 1737.421 C 652.106 1739.763, 673.632 1743.817, 687 1746.198 C 690.575 1746.835, 698.450 1748.355, 704.500 1749.577 C 710.550 1750.798, 715.767 1751.635, 716.093 1751.437 C 716.419 1751.238, 718.808 1747.424, 721.401 1742.961 C 725.433 1736.022, 725.927 1734.608, 724.808 1733.207 C 722.452 1730.257, 680.979 1680.722, 672.976 1671.300 C 667.405 1664.741, 664.893 1662.445, 664.225 1663.300 M 2224.100 1670.750 C 2222.489 1673.912, 2217.971 1682.575, 2214.061 1690 C 2210.150 1697.425, 2205.299 1706.772, 2203.280 1710.770 L 2199.609 1718.041 2185.054 1726.473 C 2164.514 1738.372, 2166.137 1736.404, 2170.560 1744.050 C 2172.612 1747.597, 2174.734 1751.065, 2175.273 1751.756 C 2176.381 1753.174, 2178.200 1752.269, 2201.438 1738.733 L 2208.376 1734.692 2230.938 1735.332 C 2243.347 1735.684, 2257.287 1736.275, 2261.915 1736.647 L 2270.331 1737.322 2266.984 1731.411 C 2265.143 1728.160, 2262.588 1723.813, 2261.306 1721.750 L 2258.975 1718 2239.487 1718 C 2228.769 1718, 2220 1717.730, 2220 1717.401 C 2220 1716.744, 2223.791 1709.776, 2232.369 1694.665 C 2235.439 1689.255, 2238.075 1684.228, 2238.226 1683.494 C 2238.543 1681.947, 2229.010 1665, 2227.823 1665 C 2227.386 1665, 2225.711 1667.588, 2224.100 1670.750 M 613.611 1754.604 C 611.625 1758.786, 610 1762.537, 610 1762.939 C 610 1763.342, 616.413 1766.746, 624.250 1770.504 C 642.678 1779.341, 675.741 1795.295, 683.770 1799.225 C 687.218 1800.913, 690.193 1802.115, 690.382 1801.897 C 691.214 1800.932, 698.018 1785.684, 697.740 1785.406 C 697.304 1784.970, 673.724 1773.334, 666.500 1769.990 C 663.200 1768.463, 651.130 1762.665, 639.679 1757.106 C 628.227 1751.548, 618.490 1747, 618.040 1747 C 617.590 1747, 615.597 1750.422, 613.611 1754.604 M 2264.500 1765.149 C 2219.489 1767.856, 2197.842 1769.021, 2192.750 1769.011 C 2189.588 1769.005, 2187 1769.412, 2187 1769.916 C 2187 1770.419, 2188.662 1774.520, 2190.694 1779.029 L 2194.389 1787.226 2205.315 1786.863 L 2216.241 1786.500 2223.278 1802.222 L 2230.314 1817.943 2222.907 1825.561 C 2218.833 1829.750, 2215.625 1833.701, 2215.778 1834.339 C 2215.932 1834.978, 2216.479 1836.400, 2216.995 1837.500 C 2217.510 1838.600, 2219.058 1842.111, 2220.434 1845.302 C 2223.215 1851.752, 2224.241 1851.878, 2228.883 1846.342 C 2230.194 1844.779, 2236.951 1837.650, 2243.900 1830.500 C 2280.417 1792.925, 2290 1782.839, 2290 1781.980 C 2290 1781.461, 2288.229 1777.203, 2286.065 1772.518 C 2283.123 1766.151, 2281.671 1764.039, 2280.315 1764.153 C 2279.317 1764.238, 2272.200 1764.686, 2264.500 1765.149 M 1248.604 1801.896 L 1224.723 1825.793 1231.361 1832.399 C 1235.013 1836.032, 1238 1839.209, 1238 1839.458 C 1238 1840.076, 1150.101 1928, 1149.484 1928 C 1149.214 1928, 1144.246 1923.217, 1138.443 1917.372 L 1127.892 1906.744 1130.196 1904.155 C 1131.463 1902.731, 1134.407 1899.526, 1136.738 1897.033 C 1139.069 1894.540, 1140.982 1892.046, 1140.988 1891.492 C 1140.995 1890.937, 1130.895 1880.386, 1118.546 1868.045 C 1097.371 1846.887, 1095.989 1845.701, 1094.296 1847.240 C 1088.570 1852.447, 1035 1906.297, 1035 1906.845 C 1035 1907.209, 1060.539 1933.042, 1091.753 1964.253 L 1148.505 2020.999 1240.255 1929.245 L 1332.004 1837.492 1302.245 1807.745 L 1272.486 1777.998 1248.604 1801.896 M 1594.244 1807.256 C 1578.160 1823.347, 1565 1836.961, 1565 1837.508 C 1565 1838.056, 1606.106 1879.608, 1656.346 1929.846 L 1747.692 2021.188 1804.924 1963.928 L 1862.155 1906.667 1831.834 1876.334 C 1815.157 1859.650, 1801.056 1846, 1800.498 1846 C 1799.940 1846, 1789.407 1856.084, 1777.092 1868.408 L 1754.700 1890.817 1756.600 1893.305 C 1757.645 1894.674, 1760.718 1898.345, 1763.428 1901.463 L 1768.356 1907.132 1757.676 1917.813 L 1746.996 1928.493 1702.405 1883.902 L 1657.815 1839.312 1664.407 1832.938 C 1668.033 1829.433, 1671 1826.235, 1671 1825.832 C 1671 1825.199, 1624.346 1778, 1623.720 1778 C 1623.592 1778, 1610.328 1791.165, 1594.244 1807.256 M 2250 1783.190 C 2244.775 1783.677, 2238.829 1784.395, 2236.787 1784.787 L 2233.074 1785.500 2234.476 1788.500 C 2235.248 1790.150, 2237.261 1794.611, 2238.951 1798.414 L 2242.023 1805.327 2244.761 1802.914 C 2246.267 1801.586, 2251.775 1796.342, 2257 1791.260 L 2266.500 1782.021 2263 1782.164 C 2261.075 1782.242, 2255.225 1782.704, 2250 1783.190 M 598.065 1787.266 C 597.582 1788.495, 596.245 1791.833, 595.093 1794.685 C 593.942 1797.537, 593 1800.267, 593 1800.751 C 593 1801.703, 596.724 1803.281, 616 1810.495 C 631.593 1816.332, 640.766 1819.857, 644 1821.257 C 646.278 1822.244, 646.322 1822.372, 644.500 1822.702 C 643.400 1822.902, 640.700 1823.470, 638.500 1823.966 C 636.300 1824.461, 631.575 1825.379, 628 1826.006 C 624.425 1826.632, 618.575 1827.749, 615 1828.488 C 607.172 1830.104, 599.881 1831.457, 590.500 1833.032 C 579.979 1834.799, 579.627 1835.038, 577.078 1842.148 C 575.826 1845.641, 574.733 1849.330, 574.651 1850.344 C 574.483 1852.393, 575.826 1852.973, 612 1866.475 C 618.875 1869.041, 627.200 1872.195, 630.500 1873.485 C 644.994 1879.149, 655.585 1883.006, 656.634 1883.003 C 657.617 1883, 663 1870.354, 663 1868.046 C 663 1867.584, 658.612 1865.555, 653.250 1863.537 C 647.888 1861.518, 640.800 1858.809, 637.500 1857.516 C 634.200 1856.223, 626.783 1853.384, 621.017 1851.207 L 610.533 1847.248 616.517 1846.045 C 619.808 1845.383, 624.300 1844.457, 626.500 1843.987 C 628.700 1843.518, 633.425 1842.621, 637 1841.994 C 640.575 1841.368, 646.650 1840.203, 650.500 1839.405 C 665.044 1836.393, 666.608 1836.088, 670.789 1835.458 C 675.591 1834.734, 676.906 1833.239, 679.437 1825.631 C 680.328 1822.953, 681.484 1819.964, 682.006 1818.988 C 683.057 1817.025, 683.924 1817.438, 660 1808.495 C 653.125 1805.925, 644.800 1802.769, 641.500 1801.481 C 638.200 1800.194, 629.875 1797.047, 623 1794.489 C 616.125 1791.931, 607.900 1788.757, 604.721 1787.435 L 598.942 1785.032 598.065 1787.266 M 2279.084 1865.159 C 2253.555 1865.621, 2232.503 1866.163, 2232.303 1866.364 C 2232.102 1866.565, 2233.666 1870.727, 2235.779 1875.614 L 2239.620 1884.500 2250.312 1884.132 L 2261.004 1883.765 2262.605 1887.632 C 2263.486 1889.760, 2265.011 1893.300, 2265.994 1895.500 C 2270.280 1905.094, 2274.002 1914.297, 2274.023 1915.355 C 2274.036 1915.985, 2270.620 1919.671, 2266.431 1923.547 L 2258.816 1930.594 2262.589 1939.820 C 2264.664 1944.894, 2266.708 1948.923, 2267.130 1948.773 C 2268.171 1948.402, 2333.375 1884.898, 2334.697 1882.966 C 2335.466 1881.842, 2335.257 1880.373, 2333.913 1877.466 C 2332.905 1875.285, 2331.177 1871.362, 2330.075 1868.750 C 2328.973 1866.138, 2327.493 1864.072, 2326.786 1864.160 C 2326.078 1864.248, 2304.613 1864.697, 2279.084 1865.159 M 563.698 1885.700 C 562.820 1889.440, 561.966 1893.603, 561.801 1894.952 C 561.465 1897.689, 560.351 1897.246, 578 1901.402 C 602.164 1907.092, 618.686 1911.204, 621.500 1912.228 C 625.745 1913.772, 629.793 1917.781, 630.540 1921.181 C 632.180 1928.648, 627.697 1940.450, 622.284 1942.917 C 619.331 1944.262, 609.942 1944.324, 605.116 1943.031 C 601.826 1942.149, 585.417 1938.243, 575.500 1935.981 C 573.300 1935.479, 567.526 1934.115, 562.668 1932.949 C 557.811 1931.783, 553.642 1931.025, 553.403 1931.263 C 552.915 1931.751, 550.565 1940.821, 549.663 1945.694 C 549.204 1948.176, 549.454 1948.998, 550.786 1949.383 C 552.308 1949.822, 556.072 1950.704, 570.500 1954.002 C 578.477 1955.826, 596.603 1960.133, 600.909 1961.228 C 603.334 1961.844, 609.891 1962.383, 615.480 1962.424 C 625.104 1962.496, 625.900 1962.340, 630.536 1959.479 C 637.397 1955.243, 641.519 1949.366, 644.513 1939.549 C 648.081 1927.852, 648.717 1919.488, 646.543 1912.841 C 642.089 1899.223, 635.003 1895.193, 603 1888.071 C 597.775 1886.908, 591.925 1885.537, 590 1885.025 C 588.075 1884.512, 582.419 1883.189, 577.430 1882.084 C 572.442 1880.980, 567.671 1879.811, 566.828 1879.487 C 565.624 1879.026, 564.952 1880.360, 563.698 1885.700 M 2294.500 1882.263 C 2285.700 1882.786, 2278.356 1883.346, 2278.181 1883.509 C 2278.005 1883.672, 2278.336 1884.637, 2278.917 1885.653 C 2280.787 1888.925, 2285 1899.209, 2285 1900.502 C 2285 1901.191, 2285.563 1902.216, 2286.250 1902.780 C 2287.175 1903.539, 2290.619 1900.849, 2299.500 1892.434 C 2306.100 1886.180, 2311.275 1881.119, 2311 1881.188 C 2310.725 1881.257, 2303.300 1881.741, 2294.500 1882.263 M 1249.024 1939.021 L 1226.792 1961.150 1229.146 1963.702 C 1230.441 1965.106, 1239.487 1974.246, 1249.250 1984.015 L 1267 2001.775 1267 2092.830 L 1267 2183.885 1283.250 2196.116 C 1306.182 2213.376, 1314.383 2220.053, 1323.250 2228.682 L 1331 2236.225 1331 2106.148 L 1331 1976.071 1303.654 1948.785 C 1288.613 1933.778, 1275.171 1920.463, 1273.782 1919.196 L 1271.256 1916.892 1249.024 1939.021 M 1594.744 1946.756 L 1565 1976.512 1565 2106.256 C 1565 2192.085, 1565.338 2236, 1566 2236 C 1566.550 2236, 1567 2235.600, 1567 2235.111 C 1567 2232.398, 1591.229 2212.139, 1615.750 2194.348 L 1629 2184.735 1629 2093.608 L 1629 2002.481 1649 1982.500 C 1660 1971.510, 1669 1962.061, 1669 1961.501 C 1669 1960.506, 1625.969 1917, 1624.985 1917 C 1624.712 1917, 1611.103 1930.390, 1594.744 1946.756 M 650.756 2583.840 C 650.622 2781.378, 650.509 2961.787, 650.506 2984.750 L 650.500 3026.500 704.250 3026.759 L 758 3027.017 758 3030.961 C 758 3036.225, 762.917 3050.600, 767.116 3057.610 C 776.852 3073.866, 792.107 3084.049, 813.270 3088.421 C 823.337 3090.500, 846.327 3090.530, 856.185 3088.476 C 880.228 3083.466, 896.857 3070.824, 906.039 3050.574 C 909.130 3043.758, 912 3033.661, 912 3029.606 L 912 3027 1070 3027 L 1228 3027 1228 2894.500 C 1228 2821.625, 1227.853 2762, 1227.672 2762 C 1227.492 2762, 1224.230 2765.039, 1220.422 2768.754 C 1203.606 2785.160, 1193.867 2793.161, 1176.803 2804.588 C 1165.464 2812.181, 1145.176 2822.593, 1137 2825.015 C 1134.525 2825.748, 1132.132 2826.660, 1131.683 2827.041 C 1131.234 2827.422, 1133.475 2829.206, 1136.663 2831.005 C 1148.827 2837.870, 1156.169 2844.466, 1162.159 2853.911 L 1165 2858.392 1165 2911.196 L 1165 2964 1113.500 2964 L 1062 2964 1062 2862.917 C 1062 2802.292, 1061.634 2761.967, 1061.086 2762.167 C 1060.583 2762.350, 1054.389 2768.125, 1047.322 2775 C 1032.889 2789.039, 1024.855 2795.733, 1010.952 2805.303 C 999.845 2812.948, 981.321 2822.820, 972 2826.063 C 968.425 2827.306, 965.153 2828.620, 964.730 2828.982 C 964.306 2829.344, 967.185 2831.409, 971.128 2833.570 C 979.988 2838.427, 991.177 2848.636, 995.061 2855.409 L 997.981 2860.500 997.991 2912.250 L 998 2964 954.965 2964 L 911.931 2964 912.498 2881.750 C 912.810 2836.512, 913.267 2797.590, 913.513 2795.256 C 914.902 2782.077, 929.524 2769, 942.871 2769 C 949.737 2769, 948.229 2767.639, 937.289 2763.961 C 917.839 2757.422, 900.990 2748.332, 884.466 2735.464 C 874.351 2727.586, 857.818 2711.359, 852.829 2704.411 L 849.500 2699.776 849 2857.638 C 848.634 2973.045, 848.192 3016.172, 847.356 3018 C 846.727 3019.375, 845.003 3021.625, 843.526 3023 C 841.295 3025.076, 839.846 3025.500, 834.985 3025.500 C 829.936 3025.500, 828.729 3025.115, 826.209 3022.700 C 821.560 3018.246, 821 3014.530, 821 2988.134 L 821 2964 767.500 2964 L 714 2964 714.010 2660.250 L 714.020 2356.500 716.439 2351.500 C 719.124 2345.954, 722.783 2341.768, 731 2334.841 C 736.597 2330.124, 752.442 2320.044, 754.415 2319.946 C 755.012 2319.917, 752.972 2319.084, 749.883 2318.095 C 737.242 2314.052, 717.351 2299.833, 696.624 2280.027 C 674.596 2258.976, 659.270 2241.219, 653.955 2230.590 L 651 2224.681 650.756 2583.840 M 2237.916 2228.250 C 2231.703 2243.465, 2195.554 2281.761, 2167.121 2303.250 C 2157.394 2310.601, 2144.695 2317.707, 2139.810 2318.532 L 2135.890 2319.194 2143.568 2323.570 C 2158.393 2332.018, 2170.976 2343.187, 2174.973 2351.445 C 2176.997 2355.624, 2177 2356.210, 2177 2691.316 L 2177 3027 2208.500 3027 L 2240 3027 2240 2626 C 2240 2405.450, 2239.830 2225, 2239.621 2225 C 2239.413 2225, 2238.645 2226.463, 2237.916 2228.250 M 1014.991 2454.250 C 1013.173 2455.488, 1010.294 2458.229, 1008.593 2460.343 C 1005.870 2463.726, 1005.505 2464.923, 1005.542 2470.343 C 1005.586 2476.749, 1007.055 2480.618, 1011.053 2484.856 C 1012.861 2486.773, 1013.017 2487.375, 1011.888 2488.091 C 1011.124 2488.574, 1009.742 2488.976, 1008.816 2488.985 C 1006.079 2489.010, 994.995 2494.098, 988 2498.540 C 979.635 2503.853, 970.153 2511.706, 962.147 2519.955 C 957.419 2524.826, 955.988 2525.860, 956.554 2524 C 956.972 2522.625, 957.319 2518.999, 957.324 2515.943 C 957.342 2505.425, 950.526 2496.391, 939.079 2491.758 C 933.915 2489.668, 932.311 2489.529, 917.500 2489.896 C 876.900 2490.901, 875.277 2490.680, 867.981 2483.150 C 865.299 2480.382, 862.946 2476.762, 862.191 2474.243 C 861.492 2471.909, 860.584 2470, 860.174 2470 C 858.162 2470, 850.449 2488.860, 847.957 2499.875 C 846.275 2507.307, 847.266 2521.877, 850.006 2530 C 852.040 2536.031, 860.297 2550.002, 861.827 2549.999 C 862.197 2549.998, 862.500 2546.691, 862.500 2542.650 C 862.500 2534.900, 863.281 2532.600, 868.429 2525.192 C 871.343 2520.998, 877.948 2515.640, 883 2513.372 C 889.493 2510.456, 891.605 2510, 898.609 2510 C 911.660 2510, 921.161 2516.484, 927.739 2529.879 C 929.911 2534.300, 930.575 2537.247, 930.850 2543.681 C 931.168 2551.120, 930.944 2552.333, 928.379 2557.046 C 920.424 2571.661, 900.525 2577.658, 882.438 2570.891 C 876.526 2568.679, 869.406 2562.255, 865.523 2555.630 C 864.031 2553.083, 862.458 2551.217, 862.028 2551.483 C 860.701 2552.303, 859 2560.607, 859 2566.265 C 859 2578.620, 865.852 2588.439, 878.854 2594.716 C 885.574 2597.960, 887.610 2598.457, 895.665 2598.819 C 902.734 2599.137, 905.571 2598.862, 908.069 2597.616 C 909.850 2596.727, 911.414 2596, 911.544 2596 C 911.675 2596, 912.092 2601.063, 912.472 2607.250 C 913.923 2630.890, 917.620 2646.854, 925.564 2663.783 C 936.837 2687.809, 954.585 2703.530, 979 2711.116 C 985.513 2713.140, 988.605 2713.450, 1002.500 2713.473 C 1019.691 2713.502, 1024.544 2712.707, 1036.315 2707.931 C 1047.243 2703.497, 1053.954 2699.041, 1062.570 2690.500 C 1071.244 2681.902, 1077.101 2671.848, 1078.508 2663.142 L 1079.212 2658.784 1083.856 2663.285 C 1090.396 2669.623, 1094.198 2671.294, 1102.074 2671.294 C 1107.614 2671.294, 1109.873 2670.715, 1116.089 2667.699 C 1120.165 2665.722, 1127.775 2660.870, 1133 2656.916 C 1154.182 2640.886, 1165.610 2634, 1171.029 2634 C 1173.714 2634, 1173.549 2633.039, 1169.465 2624.931 C 1149.136 2584.563, 1126.431 2576.800, 1102.166 2601.921 C 1096.749 2607.529, 1086 2622.783, 1086 2624.861 C 1086 2625.488, 1085.592 2626, 1085.094 2626 C 1084.595 2626, 1083.865 2623.657, 1083.472 2620.794 C 1080.662 2600.367, 1066.661 2578.352, 1051.377 2570.329 C 1039.873 2564.291, 1036.037 2563.497, 1018.500 2563.527 C 1003.185 2563.554, 996.327 2564.483, 986 2567.933 C 984.625 2568.392, 981.475 2569.348, 979 2570.058 C 972.550 2571.907, 972.167 2572.706, 977.123 2573.975 C 991.465 2577.645, 997.584 2585.202, 1006.001 2609.637 C 1011.406 2625.331, 1015.175 2632.866, 1020.683 2638.992 C 1029.203 2648.468, 1039.897 2652.776, 1057.232 2653.716 L 1067.963 2654.298 1067.400 2656.899 C 1063.971 2672.746, 1052.557 2687.684, 1038.500 2694.723 C 1012.060 2707.962, 973.923 2700.587, 950.627 2677.730 C 939.881 2667.187, 932.913 2654.631, 929.412 2639.500 C 927.317 2630.447, 928.026 2612.782, 930.937 2601.500 C 934.691 2586.956, 942.547 2570.057, 952.322 2555.500 C 966.919 2533.764, 977.778 2523.609, 999.629 2511.266 C 1037.613 2489.809, 1080.401 2491.078, 1120 2514.835 C 1124.125 2517.309, 1127.725 2519.599, 1128 2519.923 C 1128.275 2520.247, 1131.140 2522.476, 1134.367 2524.877 C 1141.915 2530.492, 1155.049 2543.559, 1162.153 2552.520 C 1176.244 2570.295, 1186.838 2590.741, 1192.950 2611.960 C 1197.482 2627.692, 1198.387 2634.391, 1198.361 2652 C 1198.338 2667.343, 1198.438 2668.255, 1199.786 2665 C 1200.584 2663.075, 1201.917 2657.675, 1202.750 2653 C 1205.770 2636.049, 1201.203 2611.269, 1189.583 2581.551 C 1187.081 2575.152, 1182.780 2565.389, 1180.024 2559.854 C 1176.363 2552.500, 1175.483 2549.984, 1176.757 2550.507 C 1180.099 2551.878, 1191.706 2552.252, 1195.194 2551.101 C 1200.256 2549.430, 1203.339 2545.555, 1207.002 2536.255 C 1210.086 2528.424, 1213.963 2523.333, 1220.367 2518.705 C 1222.109 2517.446, 1221.895 2517.112, 1217.177 2513.722 C 1206.729 2506.217, 1193.224 2500.986, 1184.356 2501.011 C 1180.145 2501.023, 1172.860 2502.987, 1168.321 2505.334 C 1164.565 2507.276, 1156.768 2515.642, 1155.009 2519.618 L 1153.629 2522.736 1147.157 2517.246 C 1131.846 2504.258, 1109.260 2492.604, 1089.500 2487.498 C 1078.460 2484.645, 1059.592 2482, 1050.275 2482 L 1041.050 2482 1042.025 2479.435 C 1042.561 2478.024, 1043 2474.576, 1043 2471.773 C 1043 2457.495, 1025.920 2446.810, 1014.991 2454.250 M 1865.773 2453.372 C 1861.874 2455.101, 1857.142 2459.867, 1854.799 2464.425 C 1852.779 2468.354, 1852.626 2475.859, 1854.476 2480.250 C 1855.148 2481.844, 1854.382 2482, 1845.857 2482.003 C 1836.459 2482.006, 1818.681 2484.541, 1807.500 2487.473 C 1786.699 2492.927, 1767.473 2502.650, 1750.566 2516.265 L 1742.632 2522.655 1740.249 2517.872 C 1737.370 2512.095, 1732.354 2507.509, 1725.465 2504.355 C 1712.567 2498.451, 1698.597 2501.048, 1680.585 2512.700 L 1673.521 2517.270 1676.010 2518.839 C 1681.535 2522.320, 1686.535 2528.761, 1689.400 2536.086 C 1693.080 2545.495, 1695.458 2548.876, 1699.617 2550.613 C 1703.482 2552.228, 1712.023 2552.427, 1716.940 2551.017 C 1718.825 2550.477, 1720.482 2550.148, 1720.621 2550.288 C 1720.761 2550.427, 1719.083 2554.106, 1716.893 2558.463 C 1708.288 2575.586, 1699.882 2598.809, 1695.344 2618 C 1692.786 2628.816, 1692.776 2654.423, 1695.326 2661.738 C 1696.331 2664.619, 1697.456 2667.165, 1697.826 2667.395 C 1698.197 2667.625, 1698.338 2661.443, 1698.141 2653.657 C 1697.615 2632.965, 1700.640 2616.690, 1708.764 2596.500 C 1723.845 2559.022, 1753.611 2525.788, 1787.244 2508.877 C 1827.813 2488.479, 1872.763 2492.614, 1911.136 2520.275 C 1922.157 2528.218, 1926.289 2532.023, 1932.593 2540.031 C 1956.542 2570.453, 1968 2597.526, 1968 2623.692 C 1968 2637.616, 1966.271 2645.376, 1960.447 2657.588 C 1946.662 2686.493, 1910.094 2705.543, 1877.878 2700.602 C 1852.072 2696.645, 1835.100 2681.585, 1829.022 2657.250 L 1828.211 2654 1835.422 2654 C 1852.607 2654, 1865.460 2649.518, 1874.476 2640.380 C 1880.646 2634.126, 1884.488 2626.628, 1890.551 2609 C 1895.628 2594.239, 1898.377 2588.802, 1903.790 2582.811 C 1907.873 2578.292, 1911.242 2576.344, 1919 2574.017 L 1924.500 2572.368 1914.500 2569.279 C 1897.567 2564.050, 1894.370 2563.548, 1878 2563.543 C 1861.274 2563.538, 1857.530 2564.262, 1846.370 2569.661 C 1838.149 2573.637, 1826.436 2585.474, 1821.789 2594.500 C 1817.509 2602.812, 1814.421 2611.917, 1812.880 2620.767 L 1811.758 2627.210 1808.946 2622.068 C 1804.570 2614.065, 1796.328 2603.452, 1790.357 2598.130 C 1774.182 2583.714, 1758.724 2584.044, 1744.443 2599.110 C 1741.111 2602.625, 1736.986 2607.552, 1735.275 2610.060 C 1732.233 2614.521, 1724.488 2629.229, 1723.831 2631.794 C 1723.630 2632.579, 1725.597 2633.839, 1728.838 2635 C 1731.773 2636.052, 1736.273 2638.121, 1738.838 2639.597 C 1743.206 2642.112, 1760.901 2654.708, 1762 2656.085 C 1763.348 2657.773, 1776.412 2666.049, 1781.609 2668.508 C 1790.033 2672.494, 1798.505 2672.493, 1805.819 2668.506 C 1808.744 2666.912, 1812.447 2664.116, 1814.047 2662.293 L 1816.957 2658.980 1817.568 2661.740 C 1821.761 2680.670, 1835.251 2696.651, 1854.500 2705.493 C 1866.481 2710.997, 1872.110 2712.554, 1885 2713.931 C 1905.002 2716.067, 1925.662 2710.765, 1941.570 2699.413 C 1967.356 2681.012, 1981.377 2650.761, 1983.627 2608.673 C 1984 2601.703, 1984.574 2596.016, 1984.902 2596.035 C 1985.231 2596.055, 1986.625 2596.714, 1988 2597.500 C 1989.582 2598.405, 1993.470 2598.942, 1998.593 2598.965 C 2011.158 2599.020, 2021.499 2594.776, 2029.517 2586.276 C 2035.018 2580.444, 2037 2575.173, 2037 2566.377 C 2037 2558.943, 2035.427 2551, 2033.956 2551 C 2033.555 2551, 2032.521 2552.490, 2031.657 2554.310 C 2028.721 2560.498, 2022.163 2566.818, 2015.181 2570.190 C 2009.093 2573.130, 2007.657 2573.417, 1999 2573.417 C 1990.388 2573.417, 1988.890 2573.122, 1982.971 2570.263 C 1970.344 2564.163, 1965.500 2557.014, 1965.500 2544.479 C 1965.500 2537.378, 1965.890 2535.666, 1968.899 2529.554 C 1972.939 2521.346, 1978.666 2515.314, 1985.436 2512.134 C 1989.654 2510.152, 1991.618 2509.865, 1998.936 2510.157 C 2009.792 2510.592, 2017.087 2513.897, 2025 2521.964 C 2031.633 2528.727, 2034.475 2535.609, 2034.308 2544.500 L 2034.195 2550.500 2037.025 2547.125 C 2041.276 2542.055, 2045.628 2533.287, 2047.512 2526 C 2050.008 2516.345, 2049.185 2500.023, 2045.680 2489.668 C 2043.020 2481.807, 2037.266 2470, 2036.095 2470 C 2035.751 2470, 2034.694 2472.182, 2033.747 2474.849 C 2031.332 2481.649, 2028.818 2484.451, 2022.226 2487.688 C 2016.993 2490.258, 2015.553 2490.499, 2005.500 2490.483 C 1999.450 2490.473, 1988.424 2490.071, 1980.998 2489.590 C 1969.451 2488.841, 1966.647 2488.961, 1961.629 2490.419 C 1952.460 2493.085, 1944.711 2498.791, 1941.298 2505.391 C 1939.314 2509.227, 1938.503 2518.577, 1939.770 2523 C 1940.704 2526.261, 1940.108 2525.848, 1931.050 2516.971 C 1917.319 2503.515, 1899.369 2491.682, 1889.277 2489.433 C 1882.694 2487.966, 1882.824 2488.248, 1886.506 2483.425 C 1894.096 2473.481, 1891.621 2460.089, 1881.100 2454.176 C 1876.792 2451.755, 1870.199 2451.409, 1865.773 2453.372 M 1267.227 2649.750 L 1267.500 2838.500 1270.500 2846.255 C 1274.144 2855.674, 1278.984 2862.041, 1285.045 2865.390 L 1289.590 2867.902 1293.337 2864.041 C 1297.912 2859.327, 1302.399 2857.158, 1315.969 2853.102 C 1327.017 2849.800, 1332.415 2847.384, 1337.750 2843.354 C 1341.582 2840.459, 1341.809 2839.260, 1338.750 2838.090 C 1336.258 2837.137, 1333.866 2834.678, 1332.089 2831.241 C 1331.211 2829.544, 1330.930 2788.006, 1330.959 2664.241 L 1330.998 2499.500 1320.353 2493 C 1314.498 2489.425, 1307.861 2485.333, 1305.604 2483.907 C 1285.816 2471.401, 1268.702 2461, 1267.913 2461 C 1267.305 2461, 1267.054 2529.951, 1267.227 2649.750 M 1605.500 2475.016 C 1593.400 2482.655, 1581.475 2490.224, 1579 2491.838 C 1576.525 2493.451, 1572.662 2495.803, 1570.415 2497.063 L 1566.331 2499.354 1565.666 2721.927 C 1565.300 2844.342, 1565 3062.963, 1565 3207.750 L 1565 3471 2001.122 3471 C 2416.333 3471, 2437.179 3470.916, 2435.872 3469.250 C 2435.118 3468.287, 2434.275 3467.275, 2433.999 3467 C 2427.995 3461.010, 2408.710 3436.534, 2401.274 3425.466 C 2392.799 3412.854, 2382.803 3394.751, 2377.963 3383.250 C 2376.748 3380.363, 2375.472 3378.012, 2375.127 3378.027 C 2374.782 3378.042, 2373.375 3379.905, 2372 3382.168 C 2368.399 3388.093, 2358.741 3395.774, 2349.500 3400.061 C 2323.955 3411.911, 2294.982 3410.164, 2279.438 3395.836 C 2268.003 3385.295, 2258.944 3367.625, 2240.532 3319.943 C 2224.893 3279.444, 2206.733 3248.108, 2187.033 3227.629 C 2177.010 3217.209, 2168.969 3211.218, 2158.840 3206.624 C 2146.278 3200.925, 2140.049 3199.634, 2125 3199.609 C 2111.078 3199.586, 2103.512 3200.819, 2090.500 3205.232 C 2082.799 3207.843, 2067.803 3214.982, 2068.197 3215.848 C 2068.364 3216.214, 2071.932 3221.685, 2076.127 3228.007 C 2087.594 3245.288, 2091.808 3253.695, 2096.520 3268.696 C 2096.785 3269.539, 2098.755 3269.150, 2103.198 3267.378 C 2108.042 3265.445, 2111.405 3264.846, 2117.736 3264.788 C 2125.017 3264.720, 2126.697 3265.070, 2132.236 3267.812 C 2148.267 3275.746, 2160.598 3294.533, 2179.347 3339.590 C 2195.715 3378.926, 2202.218 3391.095, 2212.833 3402.250 L 2218.304 3408 1923.535 3408 L 1628.766 3408 1629.514 2934.500 C 1630.151 2531.966, 1630.056 2461.010, 1628.881 2461.064 C 1628.122 2461.100, 1617.600 2467.378, 1605.500 2475.016 M 1181 2514.702 C 1176.422 2516.361, 1169.135 2520.489, 1166.664 2522.822 C 1161.429 2527.765, 1161.423 2528.506, 1166.570 2534.530 L 1171.243 2540 1179.399 2540 C 1189.293 2540, 1190.914 2539.059, 1194.481 2531.242 C 1195.922 2528.084, 1198.912 2523.650, 1201.124 2521.388 L 1205.146 2517.276 1201.053 2515.638 C 1197.097 2514.055, 1184.417 2513.463, 1181 2514.702 M 1694.625 2515.860 L 1690.750 2517.572 1694.355 2520.321 C 1696.712 2522.119, 1699.211 2525.674, 1701.579 2530.598 C 1705.812 2539.398, 1706.854 2540.001, 1717.815 2539.998 L 1725.500 2539.995 1729.744 2534.748 C 1732.078 2531.861, 1733.990 2528.999, 1733.994 2528.387 C 1734.007 2526.027, 1724.250 2518.237, 1718.662 2516.146 C 1711.504 2513.468, 1700.340 2513.336, 1694.625 2515.860 M 1366.009 2677.750 C 1366.177 2818.396, 1366.039 2833.979, 1364.588 2838.440 C 1361.575 2847.703, 1357.782 2851.816, 1349.335 2854.976 C 1346.360 2856.089, 1343.289 2857, 1342.511 2857 C 1338.944 2857, 1328.821 2860.310, 1322 2863.706 C 1316.388 2866.501, 1312.359 2869.589, 1305.995 2875.971 C 1298.785 2883.202, 1296.699 2886.098, 1292.290 2895 C 1289.430 2900.775, 1286.193 2908.042, 1285.097 2911.149 C 1281.832 2920.401, 1277.135 2941.490, 1273.992 2961 C 1269.064 2991.589, 1265.561 3002.008, 1254.405 3019.253 C 1251.982 3022.998, 1250 3026.273, 1250 3026.531 C 1250 3026.789, 1261.264 3027, 1275.031 3027 C 1294.214 3027, 1300.140 3027.292, 1300.392 3028.250 C 1301.646 3033.005, 1306.636 3047.281, 1308.344 3051 C 1316.097 3067.881, 1323.704 3075.544, 1337.171 3080.038 C 1345.607 3082.852, 1348 3084.507, 1348 3087.523 C 1348 3091.189, 1350.785 3090.618, 1351.772 3086.750 C 1352.525 3083.801, 1353.290 3083.262, 1360.051 3080.928 C 1370.348 3077.372, 1373.567 3075.528, 1379.057 3070.038 C 1384.647 3064.448, 1392.262 3049.687, 1396.600 3036.031 L 1399.469 3027 1421.818 3027 L 1444.168 3027 1441.216 3023.250 C 1433.348 3013.255, 1426.328 2999.519, 1423.459 2988.503 C 1421.239 2979.979, 1419.715 2962.067, 1420.353 2952 C 1421.164 2939.214, 1419.640 2921.991, 1416.979 2913.886 C 1414.894 2907.534, 1409.237 2898.758, 1405.893 2896.686 C 1404.643 2895.912, 1401.975 2897.248, 1393.893 2902.698 C 1377.684 2913.626, 1361.731 2924.641, 1359.151 2926.687 L 1356.801 2928.549 1358.895 2932.098 C 1364.282 2941.227, 1365.934 2959.316, 1361.974 2965.810 C 1358.373 2971.717, 1348.475 2973.774, 1339.992 2970.380 C 1337.046 2969.201, 1335.203 2967.500, 1333.222 2964.130 C 1330.769 2959.957, 1330.502 2958.563, 1330.524 2950 C 1330.554 2938.195, 1332.703 2931.363, 1338.295 2925.296 C 1343.499 2919.650, 1361.528 2906.925, 1375.500 2899.036 C 1408.881 2880.189, 1420.943 2867.181, 1427 2843.500 C 1428.952 2835.869, 1429 2832.409, 1429 2700.426 L 1429 2565.171 1418.438 2557.836 C 1412.629 2553.801, 1398.690 2544.088, 1387.462 2536.250 C 1376.235 2528.412, 1366.773 2522, 1366.435 2522 C 1366.098 2522, 1365.906 2592.088, 1366.009 2677.750 M 1520.993 2528.289 C 1516.872 2531.197, 1506.300 2538.473, 1497.500 2544.457 C 1488.700 2550.441, 1478.013 2557.773, 1473.750 2560.752 L 1466 2566.166 1466 2796.583 L 1466 3027 1498 3027 L 1530 3027 1530 2775 C 1530 2636.400, 1529.659 2523, 1529.243 2523 C 1528.827 2523, 1525.114 2525.380, 1520.993 2528.289 M 1005.143 2576.890 C 1004.193 2577.493, 1004.119 2577.956, 1004.898 2578.437 C 1008.109 2580.422, 1018.282 2598.098, 1022.923 2609.759 C 1026.727 2619.314, 1032.150 2630.024, 1034.748 2633.112 C 1037.883 2636.838, 1047.537 2641.658, 1053.724 2642.586 C 1059.479 2643.449, 1066.516 2640.836, 1068.436 2637.125 C 1071.931 2630.365, 1070.753 2619.327, 1065.361 2608.306 C 1058.471 2594.222, 1040.460 2580.933, 1023 2577.050 C 1017.467 2575.819, 1006.982 2575.726, 1005.143 2576.890 M 1870.216 2578.019 C 1844.470 2584.764, 1824.800 2607.807, 1826.187 2629.596 C 1826.503 2634.559, 1827.111 2636.489, 1828.985 2638.485 C 1832.653 2642.388, 1837.862 2643.573, 1844.663 2642.051 C 1856.995 2639.291, 1863.205 2633.646, 1868.921 2620 C 1877.787 2598.834, 1883.306 2588.310, 1889.890 2580.016 C 1891.319 2578.215, 1891.537 2577.326, 1890.681 2576.781 C 1888.537 2575.418, 1877.622 2576.078, 1870.216 2578.019 M 1121.204 2607.586 C 1114.928 2610.713, 1102.308 2623.733, 1095.127 2634.488 C 1090.258 2641.780, 1089.837 2642.857, 1090.287 2646.852 C 1090.893 2652.230, 1093.714 2656.200, 1097.753 2657.358 C 1101.817 2658.524, 1106.778 2655.783, 1123.968 2642.875 C 1138.101 2632.262, 1146.428 2627.025, 1149.191 2627.009 C 1153.798 2626.984, 1151.200 2621.266, 1143.164 2613.750 C 1134.259 2605.421, 1128.687 2603.857, 1121.204 2607.586 M 1760.530 2608.181 C 1756.070 2610.532, 1746.249 2620.154, 1745.077 2623.320 C 1744.407 2625.133, 1745.207 2625.839, 1751.546 2629.023 C 1757.623 2632.076, 1773.319 2642.815, 1775 2645.069 C 1776.248 2646.743, 1792.299 2657.037, 1794.536 2657.598 C 1798.042 2658.478, 1802.826 2656.237, 1804.547 2652.909 C 1806.650 2648.842, 1806.347 2642.721, 1803.824 2638.307 C 1798.492 2628.976, 1785.534 2614.599, 1777.320 2608.900 C 1772.213 2605.357, 1766.362 2605.107, 1760.530 2608.181 M 2042 2711.935 C 2015.885 2738.188, 1986.526 2758.307, 1964.447 2765.082 C 1960.351 2766.338, 1957 2767.636, 1957 2767.965 C 1957 2768.294, 1959.001 2769.154, 1961.446 2769.876 C 1967.468 2771.654, 1977.787 2776.605, 1981.723 2779.604 C 1983.495 2780.955, 1986.420 2784.184, 1988.223 2786.780 L 1991.500 2791.500 1991.781 2903.500 C 1991.935 2965.100, 1991.832 3016.442, 1991.551 3017.593 C 1990.764 3020.819, 1986.489 3024.537, 1982.031 3025.872 C 1977.040 3027.368, 1971.185 3025.889, 1967.786 3022.274 C 1965.546 3019.892, 1965.490 3019.286, 1965 2992.171 L 1964.500 2964.500 1853 2964 C 1744.499 2963.513, 1741.392 2963.447, 1737.500 2961.524 C 1731.604 2958.611, 1720.996 2947.489, 1716.588 2939.598 C 1712.797 2932.813, 1712.710 2932.737, 1711.402 2935.098 C 1710.670 2936.419, 1710.053 2938.175, 1710.031 2939 C 1709.957 2941.770, 1698.330 2964.410, 1692.314 2973.500 C 1682.919 2987.696, 1671.279 3001.524, 1657.578 3014.767 L 1644.923 3027 1772.873 3027 L 1900.824 3027 1901.481 3031.250 C 1903.857 3046.626, 1913.963 3064.233, 1925.702 3073.446 C 1939.475 3084.256, 1953.150 3088.857, 1974 3089.696 C 2016.622 3091.410, 2045.054 3071.854, 2054.459 3034.356 C 2055.816 3028.945, 2056 3008.547, 2056 2863.606 C 2056 2773.073, 2055.662 2699.083, 2055.250 2699.185 C 2054.838 2699.287, 2048.875 2705.024, 2042 2711.935 M 1143.565 2735.020 C 1137.572 2737.360, 1130.820 2743.767, 1127.844 2749.936 C 1124.793 2756.260, 1124.687 2767.667, 1127.620 2774.051 C 1134.651 2789.352, 1152.439 2795.912, 1167.250 2788.666 C 1185.537 2779.719, 1189.644 2755.711, 1175.335 2741.401 C 1167.381 2733.448, 1154.314 2730.823, 1143.565 2735.020 M 1878 2785.950 C 1867.766 2788.256, 1859.734 2794.744, 1855.537 2804.098 C 1853.132 2809.455, 1852.845 2811.174, 1853.152 2818.345 C 1853.699 2831.120, 1859.322 2839.796, 1870.836 2845.630 C 1875.669 2848.079, 1877.674 2848.500, 1884.500 2848.500 C 1893.496 2848.500, 1898.624 2846.582, 1905.607 2840.604 C 1917.958 2830.033, 1919.471 2811.051, 1909.056 2797.340 C 1902.448 2788.639, 1888.603 2783.562, 1878 2785.950 M 601.673 2799.940 C 594.153 2808.264, 592.370 2814.707, 590.584 2840 C 589.528 2854.960, 588.554 2862.368, 586.978 2867.414 C 584.185 2876.357, 580.450 2882.387, 578.231 2881.535 C 574.338 2880.041, 567.700 2879.823, 563.264 2881.042 C 556.994 2882.767, 552.443 2885.695, 547.229 2891.360 C 543.208 2895.730, 542.658 2896, 537.795 2896 C 525.993 2896, 516.043 2901.110, 511.805 2909.347 C 508.391 2915.983, 508.248 2932.791, 511.534 2941.250 C 511.953 2942.328, 511.749 2943, 511.002 2943 C 508.241 2943, 499.310 2948.414, 495.801 2952.216 C 490.348 2958.122, 487.817 2965.526, 487.100 2977.670 L 486.500 2987.840 472.281 2976.420 C 464.461 2970.139, 457.823 2965, 457.531 2965 C 457.239 2965, 457 2978.950, 457 2996 L 457 3027 547.500 3027 C 597.275 3027, 638 3026.624, 638 3026.165 C 638 3025.706, 637.147 3022.668, 636.105 3019.415 C 631.157 3003.976, 618.098 2961.864, 616.362 2955.750 C 615.571 2952.966, 614.406 2953.701, 613.193 2957.750 C 611.450 2963.566, 606.527 2970.605, 601.798 2974.042 C 594.383 2979.431, 591.341 2980.354, 581 2980.354 C 570.664 2980.354, 567.615 2979.430, 560.219 2974.054 C 555.749 2970.805, 550.303 2963.034, 548.219 2956.929 C 546.652 2952.337, 546.676 2941.503, 548.265 2936.998 C 551.646 2927.410, 557.395 2920.939, 567 2915.910 C 570.809 2913.916, 572.959 2913.554, 581 2913.556 C 590.713 2913.558, 594.809 2914.879, 602.602 2920.524 C 604.586 2921.962, 604.842 2921.836, 607.192 2918.273 C 613.618 2908.532, 617 2893.848, 617 2875.685 C 617 2861.954, 615.840 2853.870, 611.476 2837.169 C 606.020 2816.291, 604.482 2802.704, 607.035 2797.934 C 608.908 2794.436, 605.492 2795.713, 601.673 2799.940 M 2434.836 2841.692 C 2432.577 2845.505, 2423.494 2854.564, 2418.449 2858.035 C 2406.081 2866.545, 2392.072 2870.309, 2359 2874.010 C 2340.833 2876.043, 2333.985 2878.126, 2323.500 2884.813 C 2307.965 2894.720, 2295.442 2911.404, 2288.833 2931 C 2283.658 2946.346, 2283.731 2945.602, 2283.284 2987.250 L 2282.857 3027 2328.448 3027 L 2374.038 3027 2373.384 3029.750 C 2368.284 3051.200, 2354.755 3067.179, 2334.426 3075.762 C 2316.529 3083.318, 2300.032 3086.076, 2271.275 3086.320 C 2259.575 3086.419, 2250.001 3086.811, 2250.001 3087.192 C 2249.998 3089.180, 2271.770 3103.949, 2281.176 3108.339 C 2295.956 3115.238, 2316.079 3119.992, 2330.500 3119.992 C 2364.812 3119.992, 2399.002 3101.329, 2418.545 3071.932 C 2424.097 3063.580, 2430.945 3049.159, 2434.420 3038.500 L 2437.028 3030.500 2436.764 2934.692 C 2436.516 2844.809, 2436.397 2839.057, 2434.836 2841.692 M 1836.590 2863.426 C 1829.608 2866.357, 1824.284 2871.254, 1820.363 2878.352 C 1817.818 2882.958, 1817.523 2884.447, 1817.554 2892.500 C 1817.583 2899.827, 1818.020 2902.383, 1819.905 2906.251 C 1822.912 2912.420, 1831.614 2920.340, 1837.643 2922.394 C 1844.853 2924.851, 1855.402 2924.492, 1861.664 2921.576 C 1885.930 2910.278, 1886.258 2875.569, 1862.210 2863.896 C 1855.012 2860.403, 1844.263 2860.206, 1836.590 2863.426 M 1911.590 2863.426 C 1904.318 2866.478, 1898.755 2871.765, 1895.201 2879 C 1892.891 2883.704, 1892.507 2885.731, 1892.547 2893 C 1892.589 2900.449, 1892.955 2902.161, 1895.510 2906.848 C 1899.207 2913.631, 1906.263 2919.998, 1912.585 2922.255 C 1915.523 2923.304, 1920.352 2924.008, 1924.590 2924.005 C 1934.304 2923.998, 1942.369 2920.041, 1948.443 2912.302 C 1953.633 2905.690, 1955 2901.490, 1955 2892.162 C 1955 2874.842, 1942.581 2862.057, 1925 2861.278 C 1918.782 2861.003, 1916.490 2861.370, 1911.590 2863.426 M 2155.787 2875.629 C 2151.419 2883.607, 2135.621 2897.983, 2119.170 2908.951 C 2101.938 2920.439, 2084.735 2928.528, 2068.027 2933 L 2063.553 2934.197 2068.557 2936.349 C 2079.307 2940.971, 2086.999 2946.932, 2091.632 2954.230 L 2094 2957.960 2094 3007.931 C 2094 3049.090, 2093.736 3058.925, 2092.501 3063.701 C 2087.570 3082.775, 2075.175 3095.366, 2055.338 3101.450 C 2038.596 3106.585, 2029.779 3107.306, 1992.044 3106.624 C 1973.045 3106.281, 1948.950 3105.715, 1938.500 3105.367 C 1898.539 3104.036, 1870.848 3109.455, 1838.500 3124.936 C 1818.210 3134.645, 1802.660 3146.081, 1793.750 3157.844 C 1788.167 3165.215, 1787.620 3167.419, 1792.418 3163.206 C 1796.905 3159.266, 1805.425 3156.155, 1813.775 3155.406 C 1821.371 3154.725, 1839.570 3157.378, 1854.500 3161.342 C 1904.528 3174.625, 1907.801 3175.223, 1915.838 3172.554 C 1921.959 3170.521, 1928.601 3163.643, 1929.603 3158.300 C 1930.589 3153.044, 1929.205 3144.094, 1926.719 3139.647 C 1923.084 3133.146, 1918.223 3129.921, 1911.084 3129.274 C 1905.058 3128.727, 1904.978 3128.681, 1906.723 3126.752 C 1907.700 3125.671, 1910.186 3123.927, 1912.247 3122.875 C 1920.648 3118.587, 1929.570 3119.461, 1946.500 3126.229 C 1972.288 3136.540, 1993.225 3142.819, 2014.500 3146.624 C 2028.418 3149.113, 2061.133 3149.132, 2072.398 3146.657 C 2112.115 3137.931, 2141.844 3112.897, 2155.457 3076.714 L 2158.010 3069.928 2157.755 2971.214 C 2157.513 2877.379, 2157.415 2872.655, 2155.787 2875.629 M 2371 2930.683 C 2360.151 2932.463, 2350.938 2942.036, 2347.446 2955.158 C 2344.937 2964.584, 2344.108 2964, 2360 2964 L 2374 2964 2374 2947 C 2374 2937.650, 2373.887 2930.061, 2373.750 2930.136 C 2373.613 2930.211, 2372.375 2930.457, 2371 2930.683 M 671.035 3046.202 C 659.460 3050.646, 650.982 3063.175, 651.015 3075.788 C 651.067 3095.407, 669.246 3110.738, 687.943 3106.930 C 706.286 3103.194, 717.272 3087.076, 713.569 3069.332 C 709.524 3049.946, 689.560 3039.090, 671.035 3046.202 M 1019.811 3045.470 C 1013.713 3047.150, 1009.065 3050.079, 1004.527 3055.102 C 998.976 3061.246, 997 3066.771, 997 3076.145 C 997 3086, 999.837 3092.751, 1006.596 3098.982 C 1022.794 3113.912, 1047.362 3109.289, 1056.977 3089.500 C 1060.361 3082.536, 1060.403 3069.722, 1057.065 3062.764 C 1052.791 3053.855, 1045.595 3048.046, 1035.500 3045.356 C 1029.454 3043.745, 1025.984 3043.770, 1019.811 3045.470 M 610.967 3085.600 C 607.011 3097.586, 584.231 3123.342, 564.707 3137.902 C 549.334 3149.367, 531.090 3159.728, 523.250 3161.446 C 521.462 3161.838, 520.001 3162.461, 520.002 3162.829 C 520.004 3163.198, 522.591 3164.837, 525.752 3166.471 C 533.360 3170.404, 541.924 3179.061, 545.564 3186.500 L 548.500 3192.500 548.787 3252.166 L 549.074 3311.833 542.287 3312.457 C 503.711 3316.002, 480.285 3331.227, 467.936 3360.780 C 459.363 3381.293, 457.020 3398.337, 457.008 3440.250 L 457 3471 629.500 3471 C 724.375 3471, 802 3470.834, 802 3470.631 C 802 3470.428, 802.684 3466.341, 803.520 3461.548 C 807.924 3436.293, 824.847 3409.312, 849.140 3388.812 C 868.741 3372.272, 893.898 3359.885, 922 3352.934 C 938.523 3348.848, 952.094 3347.044, 971.750 3346.320 L 989 3345.685 988.999 3340.593 C 988.998 3330.236, 983.286 3309.783, 976.426 3295.570 C 962.864 3267.470, 939.208 3245.635, 910.863 3235.055 C 904.434 3232.655, 886.376 3228, 883.497 3228 C 881.714 3228, 881.496 3227.487, 881.823 3224.057 C 882.263 3219.444, 878.827 3211.140, 873.799 3204.664 C 872.020 3202.374, 863.557 3193.300, 854.991 3184.500 C 844.531 3173.754, 838.567 3166.790, 836.828 3163.293 L 834.239 3158.086 832.484 3162.681 C 831.166 3166.133, 826.780 3171.349, 814.851 3183.654 C 806.118 3192.661, 796.990 3202.725, 794.566 3206.017 C 789.635 3212.716, 786.575 3220.654, 787.223 3225.069 C 787.583 3227.516, 787.307 3228, 785.554 3228 C 782.633 3228, 764.619 3232.635, 758.137 3235.055 C 727.080 3246.647, 701.871 3271.772, 688.960 3304 C 684.812 3314.355, 681.116 3328.854, 680.411 3337.540 L 679.707 3346.225 684.603 3345.749 C 699.891 3344.264, 741.395 3349.840, 764.552 3356.490 L 769.604 3357.941 776.552 3351.395 C 793.273 3335.641, 806.455 3325.554, 816.409 3320.896 C 821.633 3318.451, 822.829 3317.499, 821.972 3316.467 C 820.773 3315.021, 807.381 3308.296, 799.500 3305.180 C 792.167 3302.282, 783.822 3299.228, 781.250 3298.501 C 777.859 3297.543, 778.502 3296.461, 783.824 3294.171 C 793.299 3290.095, 803.544 3287.300, 813.830 3285.984 C 821.057 3285.059, 821.542 3284.791, 820.227 3282.440 C 818.600 3279.533, 820.950 3274.494, 827.766 3266.273 C 831.310 3261.998, 834.320 3258.380, 834.456 3258.232 C 834.591 3258.085, 837.484 3261.328, 840.883 3265.438 C 848.271 3274.369, 850.637 3279.306, 849.123 3282.630 C 848.152 3284.761, 848.341 3284.963, 851.789 3285.474 C 867.484 3287.803, 879.155 3291, 887.500 3295.256 C 891.037 3297.060, 891.268 3297.385, 889.500 3298.058 C 888.400 3298.477, 884.800 3299.828, 881.500 3301.061 C 873.595 3304.014, 848.585 3316.450, 838.507 3322.439 C 802.956 3343.567, 773.167 3372.510, 758.938 3399.750 L 754.629 3408 684.314 3408 L 614 3408 614 3245 C 614 3146.136, 613.637 3082, 613.078 3082 C 612.570 3082, 611.621 3083.620, 610.967 3085.600 M 676 3120.860 C 651.715 3126.039, 642.689 3156.689, 660.272 3174.272 C 668.157 3182.157, 681.558 3185.354, 692.654 3181.997 C 702.561 3179.001, 711.615 3168.520, 713.832 3157.483 C 716.571 3143.846, 708.527 3128.660, 695.519 3122.905 C 690.610 3120.734, 681.212 3119.749, 676 3120.860 M 492.282 3175.110 C 485.637 3177.664, 479.075 3184.034, 475.667 3191.238 C 471.977 3199.039, 471.892 3209.781, 475.460 3217.324 C 478.498 3223.746, 484.771 3230.214, 490.880 3233.224 C 497.577 3236.523, 511.600 3236.497, 517.849 3233.172 C 524.145 3229.823, 530.480 3223.612, 533.116 3218.204 C 536.399 3211.473, 536.413 3197.556, 533.145 3190.857 C 525.905 3176.016, 507.938 3169.092, 492.282 3175.110 M 2030.750 3248.566 C 2030.338 3248.988, 2030 3275.316, 2030 3307.073 L 2030 3364.813 2039.414 3365.519 C 2044.591 3365.907, 2049.316 3365.923, 2049.914 3365.553 C 2050.675 3365.083, 2051 3347.563, 2051 3306.941 L 2051 3249 2046.250 3248.991 C 2043.638 3248.987, 2039.250 3248.716, 2036.500 3248.390 C 2033.750 3248.065, 2031.162 3248.144, 2030.750 3248.566 M 494 3250.649 C 485.733 3253.503, 479.511 3259.226, 475.475 3267.688 C 472.028 3274.915, 471.997 3285.675, 475.401 3293.373 C 480.288 3304.422, 490.275 3311.182, 502.674 3311.834 C 512.392 3312.345, 518.512 3310.212, 525.401 3303.916 C 533.216 3296.774, 535.408 3291.652, 535.421 3280.500 C 535.430 3272.690, 535.079 3270.824, 532.771 3266.392 C 529.227 3259.589, 521.541 3252.802, 514.980 3250.683 C 508.552 3248.606, 499.956 3248.593, 494 3250.649 M 1065.697 3251.499 C 1052.721 3255.067, 1043.627 3264.583, 1040.628 3277.731 C 1039.795 3281.384, 1039.298 3284.673, 1039.525 3285.040 C 1039.751 3285.407, 1042.989 3285.991, 1046.718 3286.338 C 1050.448 3286.685, 1055.638 3287.262, 1058.250 3287.620 C 1062.467 3288.199, 1063.001 3288.060, 1063.006 3286.386 C 1063.019 3281.937, 1065.454 3276.308, 1068.684 3273.262 C 1071.800 3270.323, 1072.739 3270, 1078.167 3270 C 1088.771 3270, 1093 3274.363, 1093 3285.304 C 1093 3291.099, 1092.613 3292.375, 1089.407 3297.150 C 1087.431 3300.092, 1077.824 3310.375, 1068.058 3320 C 1050.614 3337.192, 1046.553 3342.019, 1041.984 3351 C 1039.489 3355.906, 1037.031 3364.185, 1037.012 3367.750 L 1037 3370 1077 3370 L 1117 3370 1117 3359 L 1117 3348 1095 3348 C 1079.135 3348, 1073 3347.680, 1073 3346.854 C 1073 3346.224, 1080.380 3338.462, 1089.400 3329.604 C 1098.420 3320.747, 1107.394 3310.974, 1109.343 3307.887 C 1124.432 3283.983, 1116.331 3257.965, 1091.764 3251.425 C 1085.267 3249.695, 1072.122 3249.733, 1065.697 3251.499 M 1152.500 3251.392 C 1139.821 3255.381, 1132.372 3264.693, 1127.752 3282.327 C 1125.939 3289.247, 1125.602 3293.412, 1125.555 3309.500 C 1125.491 3331.625, 1126.766 3340.288, 1131.602 3350.603 C 1138.810 3365.972, 1153.049 3373.706, 1169.440 3371.154 C 1185.068 3368.721, 1194.560 3359.044, 1199.506 3340.500 C 1203.243 3326.490, 1203.242 3294.471, 1199.504 3280.500 C 1194.032 3260.050, 1182.050 3249.893, 1163.601 3250.067 C 1159.695 3250.104, 1154.700 3250.700, 1152.500 3251.392 M 1247.987 3254.250 C 1243.144 3263.541, 1234.675 3271.158, 1222.250 3277.397 L 1217 3280.034 1217 3290.584 C 1217 3301.058, 1217.016 3301.130, 1219.250 3300.461 C 1223.839 3299.088, 1235.657 3292.684, 1240.500 3288.947 L 1245.500 3285.088 1245.761 3327.544 L 1246.021 3370 1257.511 3370 L 1269 3370 1269 3310 L 1269 3250 1259.601 3250 L 1250.202 3250 1247.987 3254.250 M 1296 3263 L 1296 3274 1321 3274 C 1334.750 3274, 1346 3274.150, 1346 3274.332 C 1346 3274.515, 1343.008 3279.128, 1339.352 3284.582 C 1331.080 3296.922, 1324.165 3311.348, 1319.020 3327 C 1317.318 3332.179, 1316.590 3334.994, 1314.095 3346.059 C 1313.530 3348.567, 1312.760 3354.995, 1312.384 3360.344 L 1311.700 3370.068 1323.100 3369.784 L 1334.500 3369.500 1335.148 3359.500 C 1336.218 3342.977, 1341.485 3323.603, 1349.691 3306 C 1354.400 3295.899, 1367.059 3276.115, 1371.396 3272.076 C 1373.821 3269.818, 1374 3269.046, 1374 3260.826 L 1374 3252 1335 3252 L 1296 3252 1296 3263 M 1722 3262 C 1719.022 3264.978, 1719.333 3270.330, 1722.635 3272.927 C 1726.913 3276.293, 1731.184 3275.297, 1733.837 3270.316 C 1735.540 3267.117, 1735.285 3265.600, 1732.548 3262.646 C 1729.552 3259.413, 1724.873 3259.127, 1722 3262 M 1740.337 3261.477 C 1736.303 3264.302, 1736.590 3270.399, 1740.913 3273.718 C 1745.170 3276.987, 1752 3273.111, 1752 3267.427 C 1752 3261.160, 1745.513 3257.851, 1740.337 3261.477 M 1156.263 3272.891 C 1151.470 3277.684, 1150.500 3284.184, 1150.500 3311.500 C 1150.500 3337.876, 1151.260 3342.926, 1155.991 3347.990 C 1160.623 3352.949, 1166.910 3353.181, 1171.528 3348.563 C 1176.266 3343.825, 1177.410 3336.673, 1177.457 3311.500 C 1177.505 3285.650, 1176.563 3279.352, 1171.779 3273.548 C 1169.162 3270.374, 1168.344 3270, 1164.004 3270 C 1159.989 3270, 1158.656 3270.498, 1156.263 3272.891 M 1905 3282.505 C 1900.300 3287.520, 1883.737 3298, 1880.511 3298 C 1880.230 3298, 1879.984 3295.188, 1879.964 3291.750 L 1879.928 3285.500 1877.714 3288.067 C 1872.602 3293.993, 1857.331 3304, 1853.398 3304 C 1852.370 3304, 1852 3302.545, 1852 3298.500 C 1852 3295.475, 1851.737 3293, 1851.417 3293 C 1851.096 3293, 1849.367 3294.510, 1847.575 3296.355 C 1842.198 3301.892, 1827.598 3311, 1824.099 3311 C 1822.211 3311, 1822.894 3312.700, 1825.455 3314.379 C 1831.663 3318.446, 1832 3319.389, 1832 3332.689 L 1832 3345 1814 3345 L 1796 3345 1796 3316.712 L 1796 3288.423 1790.544 3293.501 C 1785.240 3298.437, 1773.068 3306, 1770.427 3306 C 1767.546 3306, 1768.166 3308.039, 1771.980 3311.104 L 1776 3314.335 1776 3329.667 L 1776 3345 1739.636 3345 L 1703.273 3345 1700.672 3342.399 C 1699.241 3340.968, 1697.799 3338.943, 1697.468 3337.899 C 1697.136 3336.855, 1696.558 3336.011, 1696.183 3336.025 C 1695.807 3336.039, 1693.997 3339.168, 1692.159 3342.979 C 1690.322 3346.790, 1686.160 3353.075, 1682.909 3356.946 C 1679.659 3360.817, 1677 3364.212, 1677 3364.492 C 1677 3364.771, 1753.950 3365, 1848 3365 L 2019 3365 2019 3322.297 L 2019 3279.594 2015.250 3283.145 C 2009.735 3288.367, 2004.783 3291.836, 1998.282 3295.029 L 1992.500 3297.869 1992.202 3291.934 C 1992.039 3288.670, 1991.666 3286, 1991.374 3286 C 1991.082 3286, 1989.191 3287.749, 1987.172 3289.886 C 1983.065 3294.233, 1974.251 3300.106, 1967.477 3303.010 L 1963 3304.929 1963 3299.464 C 1963 3296.459, 1962.727 3294, 1962.394 3294 C 1962.061 3294, 1960.932 3295.088, 1959.886 3296.418 C 1957.218 3299.810, 1946.606 3307.111, 1939.619 3310.362 L 1933.739 3313.098 1937.753 3316.050 C 1939.961 3317.673, 1942.038 3320.014, 1942.370 3321.251 C 1942.701 3322.488, 1942.979 3328.338, 1942.986 3334.250 L 1943 3345 1925.514 3345 L 1908.027 3345 1907.764 3312.419 L 1907.500 3279.838 1905 3282.505 M 1525.444 3286.725 C 1522.558 3291.130, 1514.815 3299.030, 1510.500 3301.974 C 1496.281 3311.671, 1485.958 3314.765, 1455.500 3318.458 C 1433.549 3321.120, 1426.116 3322.873, 1418 3327.305 C 1393.110 3340.896, 1376.452 3366.774, 1371.903 3398.917 L 1370.617 3408 1142.559 3407.993 L 914.500 3407.987 909.561 3398.397 C 903.740 3387.094, 895.404 3374, 894.030 3374 C 888.824 3374, 844 3407.316, 844 3411.185 C 844 3411.658, 845.724 3413.947, 847.831 3416.272 C 857.715 3427.180, 862.481 3440.850, 864.560 3464.250 L 865.159 3471 1196.580 3471 L 1528 3471 1528 3377.500 C 1528 3326.075, 1527.827 3284, 1527.615 3284 C 1527.403 3284, 1526.426 3285.226, 1525.444 3286.725 M 1880 3322.378 L 1880 3345 1884 3345 L 1888 3345 1888 3325.674 C 1888 3306.884, 1887.938 3306.294, 1885.750 3304.377 C 1879.525 3298.922, 1880 3297.436, 1880 3322.378 M 1992 3323 L 1992 3345 1995.500 3345 L 1999 3345 1999 3325.687 L 1999 3306.374 1996.195 3303.687 C 1994.653 3302.209, 1993.078 3301, 1992.695 3301 C 1992.313 3301, 1992 3310.900, 1992 3323 M 1852 3325.416 L 1852 3345 1856 3345 L 1860 3345 1860 3328.584 L 1860 3312.168 1856 3309 L 1852 3305.832 1852 3325.416 M 1963 3325.378 L 1963 3345 1967 3345 L 1971 3345 1971 3328.674 C 1971 3312.995, 1970.911 3312.271, 1968.750 3310.377 C 1962.546 3304.940, 1963 3303.756, 1963 3325.378 M 538.345 3377.976 C 533.336 3380.848, 527.658 3386.913, 525.215 3392 C 523.092 3396.419, 521 3403.183, 521 3405.626 L 521 3408 535.500 3408 L 550 3408 550 3391.500 L 550 3375 546.750 3375.009 C 544.962 3375.015, 541.180 3376.349, 538.345 3377.976 M 1459.734 3376.088 C 1447.595 3378.948, 1437.418 3390.363, 1435.479 3403.293 L 1434.773 3408 1449.886 3408 L 1465 3408 1465 3391.500 C 1465 3382.425, 1464.662 3375.045, 1464.250 3375.100 C 1463.838 3375.156, 1461.806 3375.600, 1459.734 3376.088 M 457 3530.500 L 457 3562 1282.411 3562 L 2107.822 3562 2103.454 3555.486 C 2098.339 3547.857, 2097.031 3544.020, 2096.305 3534.500 C 2095.647 3525.864, 2097.262 3519.960, 2103.481 3508.268 C 2105.967 3503.597, 2108 3499.600, 2108 3499.387 C 2108 3499.174, 1736.525 3499, 1282.500 3499 L 457 3499 457 3530.500 M 2134 3499.627 C 2124.539 3501.391, 2116.200 3507.815, 2111.824 3516.712 C 2108.933 3522.591, 2108.505 3524.449, 2108.540 3530.985 C 2108.592 3540.630, 2111.391 3547.222, 2118.099 3553.495 C 2124.973 3559.926, 2130.350 3562, 2140.145 3562 C 2150 3562, 2156.751 3559.163, 2162.982 3552.404 C 2169.160 3545.702, 2171.398 3540.020, 2171.415 3531 C 2171.426 3525, 2170.906 3522.369, 2168.813 3517.845 C 2165.749 3511.220, 2159.760 3505.048, 2153.576 3502.141 C 2149.196 3500.082, 2138.753 3498.741, 2134 3499.627 M 2177.504 3505.451 C 2182.964 3513.594, 2184.997 3520.557, 2185.010 3531.154 C 2185.022 3541.320, 2182.393 3549.630, 2176.844 3556.962 L 2173.031 3562 2305.515 3562 L 2438 3562 2438 3530.500 L 2438 3499 2305.589 3499 L 2173.178 3499 2177.504 3505.451" stroke="none" fill="#fffcfc" fill-rule="evenodd"/><path d="" stroke="none" fill="#fcfcfc" fill-rule="evenodd"/></svg>