<svg id="svg" version="1.1" xmlns="http://www.w3.org/2000/svg" xmlns:xlink="http://www.w3.org/1999/xlink" width="400" height="215.00155617802676" viewBox="0, 0, 400,215.00155617802676"><g id="svgg"><path id="path0" d="M156.000 73.333 L 156.000 146.667 170.750 146.667 L 185.500 146.667 185.500 73.333 L 185.500 0.000 170.750 0.000 L 156.000 0.000 156.000 73.333 M214.500 14.750 L 214.500 29.500 229.250 29.500 L 244.000 29.500 244.000 14.750 L 244.000 0.000 229.250 0.000 L 214.500 0.000 214.500 14.750 M38.833 131.917 L 38.833 146.667 53.583 146.667 L 68.333 146.667 68.333 131.917 L 68.333 117.167 53.583 117.167 L 38.833 117.167 38.833 131.917 M214.500 131.917 L 214.500 146.667 287.833 146.667 L 361.167 146.667 361.167 131.917 L 361.167 117.167 287.833 117.167 L 214.500 117.167 214.500 131.917 M23.833 172.443 C 23.833 172.599,23.903 172.957,23.988 173.238 C 24.204 173.949,24.595 175.381,24.926 176.667 C 25.079 177.262,25.303 178.088,25.424 178.500 C 25.545 178.912,25.722 179.550,25.817 179.917 C 25.913 180.283,26.101 180.996,26.235 181.500 C 26.369 182.004,26.604 182.904,26.758 183.500 C 26.912 184.096,27.142 184.940,27.269 185.375 C 27.396 185.810,27.604 186.523,27.731 186.958 C 27.858 187.394,28.083 188.219,28.231 188.792 C 28.379 189.365,28.621 190.302,28.769 190.875 C 28.917 191.448,29.137 192.254,29.257 192.667 C 29.564 193.717,29.933 195.063,30.260 196.333 C 30.414 196.929,30.612 197.662,30.701 197.962 L 30.861 198.506 34.462 198.462 L 38.062 198.417 38.173 197.917 C 38.234 197.642,38.413 196.817,38.571 196.083 C 38.729 195.350,38.958 194.338,39.081 193.833 C 39.203 193.329,39.429 192.317,39.584 191.583 C 39.738 190.850,39.965 189.800,40.087 189.250 C 40.633 186.797,41.333 182.726,41.336 181.986 C 41.339 181.200,41.626 181.670,41.751 182.667 C 41.878 183.680,42.300 186.139,42.610 187.667 C 42.854 188.868,43.066 189.793,43.506 191.583 C 43.618 192.042,43.766 192.717,43.833 193.083 C 43.901 193.450,44.048 194.125,44.161 194.583 C 44.274 195.042,44.466 195.829,44.588 196.333 C 44.711 196.838,44.875 197.512,44.953 197.833 L 45.096 198.417 48.597 198.462 L 52.099 198.506 52.364 197.712 C 52.509 197.274,52.755 196.429,52.909 195.833 C 53.063 195.237,53.288 194.412,53.409 194.000 C 53.530 193.588,53.759 192.762,53.918 192.167 C 54.076 191.571,54.301 190.746,54.417 190.333 C 54.532 189.921,54.757 189.096,54.917 188.500 C 55.076 187.904,55.309 187.079,55.435 186.667 C 55.560 186.254,55.929 184.904,56.254 183.667 C 56.579 182.429,56.909 181.192,56.986 180.917 C 57.618 178.679,57.895 177.668,58.011 177.167 C 58.085 176.846,58.305 176.058,58.500 175.417 C 58.695 174.775,58.914 173.987,58.988 173.667 C 59.062 173.346,59.178 172.877,59.246 172.625 L 59.369 172.167 55.768 172.167 L 52.167 172.167 52.167 172.554 C 52.167 172.766,52.064 173.273,51.939 173.679 C 51.638 174.656,51.318 175.927,51.167 176.750 C 51.099 177.117,50.952 177.792,50.839 178.250 C 50.726 178.708,50.532 179.496,50.408 180.000 C 49.774 182.567,48.736 188.185,48.622 189.667 C 48.587 190.115,48.526 189.960,48.361 189.000 C 47.582 184.489,47.257 182.753,46.897 181.167 C 46.444 179.174,46.203 178.090,46.009 177.167 C 45.685 175.621,45.301 173.960,45.057 173.042 L 44.824 172.167 41.512 172.167 L 38.200 172.167 38.007 173.042 C 37.901 173.523,37.699 174.404,37.559 175.000 C 37.419 175.596,37.202 176.533,37.077 177.083 C 36.952 177.633,36.728 178.608,36.578 179.250 C 36.240 180.705,36.098 181.380,35.756 183.167 C 35.606 183.946,35.374 185.108,35.240 185.750 C 35.106 186.392,34.997 187.096,34.998 187.314 C 34.999 187.533,34.909 188.206,34.798 188.809 L 34.596 189.907 34.305 188.495 C 34.146 187.719,34.012 186.869,34.008 186.607 C 34.003 186.345,33.884 185.595,33.743 184.941 C 33.601 184.286,33.369 183.188,33.227 182.500 C 32.909 180.962,32.551 179.377,32.248 178.167 C 32.121 177.662,31.895 176.688,31.744 176.000 C 31.593 175.313,31.366 174.338,31.239 173.833 C 31.111 173.329,30.986 172.767,30.960 172.583 C 30.892 172.105,23.833 171.966,23.833 172.443 M70.111 172.959 C 69.618 174.235,69.311 175.041,69.065 175.708 C 68.937 176.052,68.712 176.652,68.565 177.042 C 68.417 177.431,68.192 178.031,68.065 178.375 C 67.937 178.719,67.726 179.281,67.596 179.625 C 67.465 179.969,67.162 180.813,66.922 181.500 C 66.683 182.188,66.377 182.962,66.243 183.222 C 66.109 183.481,66.000 183.798,66.000 183.925 C 66.000 184.051,65.895 184.402,65.767 184.703 C 65.639 185.004,65.422 185.550,65.286 185.917 C 64.822 187.162,64.538 187.915,64.280 188.583 C 64.138 188.950,63.785 189.887,63.495 190.667 C 62.844 192.418,62.516 193.270,62.246 193.917 C 62.131 194.192,61.868 194.925,61.661 195.547 C 61.454 196.168,61.221 196.717,61.142 196.765 C 61.064 196.813,61.000 197.032,61.000 197.250 C 61.000 197.468,60.934 197.688,60.853 197.738 C 60.773 197.787,60.667 197.979,60.619 198.164 C 60.491 198.652,67.715 198.696,67.920 198.208 C 68.282 197.347,69.208 194.687,69.284 194.292 L 69.371 193.833 73.827 193.833 L 78.283 193.833 78.551 194.625 C 79.056 196.116,79.342 196.917,79.492 197.250 C 79.574 197.433,79.685 197.790,79.740 198.042 L 79.840 198.500 83.503 198.500 C 85.825 198.500,87.167 198.439,87.167 198.334 C 87.167 198.060,86.470 196.096,86.313 195.925 C 86.232 195.838,86.167 195.609,86.167 195.417 C 86.167 195.224,86.104 194.995,86.027 194.908 C 85.950 194.821,85.677 194.150,85.420 193.417 C 85.163 192.683,84.889 192.012,84.810 191.925 C 84.731 191.838,84.667 191.609,84.667 191.417 C 84.667 191.224,84.603 190.995,84.525 190.908 C 84.446 190.821,84.107 189.963,83.770 189.000 C 83.434 188.037,83.048 187.038,82.912 186.778 C 82.777 186.519,82.667 186.177,82.667 186.020 C 82.667 185.862,82.601 185.662,82.521 185.575 C 82.440 185.488,82.166 184.795,81.912 184.036 C 81.658 183.276,81.386 182.616,81.308 182.568 C 81.230 182.520,81.167 182.312,81.167 182.107 C 81.167 181.901,81.102 181.662,81.024 181.575 C 80.945 181.488,80.670 180.817,80.413 180.083 C 80.156 179.350,79.883 178.679,79.806 178.592 C 79.730 178.505,79.667 178.265,79.667 178.060 C 79.667 177.854,79.603 177.647,79.525 177.599 C 79.447 177.551,79.176 176.890,78.921 176.131 C 78.667 175.371,78.393 174.679,78.313 174.592 C 78.232 174.505,78.167 174.265,78.167 174.060 C 78.167 173.854,78.094 173.641,78.005 173.586 C 77.915 173.531,77.762 173.189,77.665 172.826 L 77.487 172.167 73.952 172.167 L 70.417 172.168 70.111 172.959 M91.000 185.318 L 91.000 198.500 94.500 198.500 L 98.000 198.500 98.000 193.750 L 98.000 189.000 100.808 189.000 C 105.742 189.000,106.328 189.625,106.830 195.417 C 106.918 196.425,107.070 197.531,107.169 197.875 L 107.349 198.500 110.925 198.500 C 114.156 198.500,114.873 198.417,114.360 198.100 C 114.115 197.948,113.692 195.966,113.592 194.500 C 113.267 189.737,112.255 187.199,110.400 186.494 C 109.984 186.335,109.986 186.000,110.403 186.000 C 110.847 186.000,112.356 184.361,112.867 183.325 C 114.550 179.909,113.507 175.791,110.451 173.787 C 108.368 172.421,107.578 172.316,98.625 172.219 L 91.000 172.136 91.000 185.318 M120.111 172.278 C 120.050 172.339,120.000 178.264,120.000 185.444 L 120.000 198.500 123.500 198.500 L 127.000 198.500 127.000 185.333 L 127.000 172.167 123.611 172.167 C 121.747 172.167,120.172 172.217,120.111 172.278 M131.500 175.250 L 131.500 178.333 135.417 178.333 L 139.333 178.333 139.333 188.417 L 139.333 198.500 142.833 198.500 L 146.333 198.500 146.333 188.417 L 146.333 178.333 150.167 178.333 L 154.000 178.333 154.000 175.250 L 154.000 172.167 142.750 172.167 L 131.500 172.167 131.500 175.250 M158.833 185.333 L 158.833 198.500 162.333 198.500 L 165.833 198.500 165.833 193.167 L 165.833 187.833 170.083 187.833 L 174.333 187.833 174.333 193.167 L 174.333 198.500 177.917 198.500 L 181.500 198.500 181.500 185.333 L 181.500 172.167 177.917 172.167 L 174.333 172.167 174.333 176.917 L 174.333 181.667 170.083 181.667 L 165.833 181.667 165.833 176.917 L 165.833 172.167 162.333 172.167 L 158.833 172.167 158.833 185.333 M196.333 185.333 L 196.333 198.500 207.000 198.500 L 217.667 198.500 217.667 195.667 L 217.667 192.833 210.417 192.833 L 203.167 192.833 203.167 190.333 L 203.167 187.833 209.583 187.833 L 216.000 187.833 216.000 185.000 L 216.000 182.167 209.583 182.167 L 203.167 182.167 203.167 180.167 L 203.167 178.167 210.250 178.167 L 217.333 178.167 217.333 175.167 L 217.333 172.167 206.833 172.167 L 196.333 172.167 196.333 185.333 M223.000 185.333 L 223.000 198.500 232.583 198.500 L 242.167 198.500 242.167 195.417 L 242.167 192.333 236.083 192.333 L 230.000 192.333 230.000 182.250 L 230.000 172.167 226.500 172.167 L 223.000 172.167 223.000 185.333 M247.167 185.333 L 247.167 198.500 257.917 198.500 L 268.667 198.500 268.667 195.667 L 268.667 192.833 261.417 192.833 L 254.167 192.833 254.167 190.333 L 254.167 187.833 260.583 187.833 L 267.000 187.833 267.000 185.000 L 267.000 182.167 260.583 182.167 L 254.167 182.167 254.167 180.167 L 254.167 178.167 261.167 178.167 L 268.167 178.167 268.167 175.167 L 268.167 172.167 257.667 172.167 L 247.167 172.167 247.167 185.333 M271.500 172.324 C 271.500 172.415,271.604 172.810,271.731 173.203 C 271.859 173.595,272.201 174.704,272.491 175.667 C 273.197 178.002,273.501 178.967,273.753 179.667 C 273.869 179.987,274.094 180.700,274.254 181.250 C 274.414 181.800,274.636 182.512,274.749 182.833 C 274.943 183.385,275.201 184.200,276.496 188.333 C 276.797 189.296,277.137 190.346,277.250 190.667 C 277.363 190.987,277.702 192.037,278.003 193.000 C 278.305 193.963,278.755 195.387,279.006 196.167 C 279.256 196.946,279.508 197.790,279.567 198.042 L 279.673 198.500 283.726 198.500 C 287.770 198.500,287.780 198.499,287.945 198.125 C 288.037 197.919,288.392 196.850,288.736 195.750 C 289.080 194.650,289.467 193.504,289.597 193.203 C 289.727 192.902,289.833 192.548,289.833 192.417 C 289.833 192.285,289.940 191.932,290.070 191.631 C 290.268 191.170,290.936 189.100,292.450 184.250 C 292.593 183.792,292.802 183.154,292.915 182.833 C 293.027 182.512,293.212 181.987,293.324 181.667 C 293.437 181.346,293.591 180.858,293.667 180.583 C 293.742 180.308,293.886 179.858,293.986 179.583 C 294.678 177.678,296.167 172.883,296.167 172.560 L 296.167 172.167 292.500 172.167 C 289.235 172.167,288.833 172.196,288.833 172.436 C 288.833 172.691,288.532 173.716,288.078 175.000 C 287.965 175.321,287.666 176.258,287.415 177.083 C 287.165 177.908,286.819 179.033,286.648 179.583 C 285.433 183.497,284.792 185.975,284.137 189.293 C 283.905 190.465,283.803 190.390,283.515 188.833 C 282.998 186.038,281.859 181.698,280.671 178.000 C 280.509 177.496,280.171 176.408,279.919 175.583 C 279.667 174.758,279.361 173.821,279.239 173.500 C 279.116 173.179,278.992 172.767,278.964 172.583 C 278.906 172.210,271.500 171.953,271.500 172.324 M307.181 172.542 C 307.102 172.748,306.924 173.217,306.787 173.583 C 306.286 174.921,306.032 175.598,305.769 176.292 C 305.621 176.681,305.387 177.300,305.250 177.667 C 305.112 178.033,304.887 178.633,304.750 179.000 C 304.454 179.790,304.178 180.511,303.581 182.062 C 303.338 182.692,303.001 183.629,302.831 184.145 C 302.661 184.661,302.361 185.496,302.165 186.000 C 301.969 186.504,301.745 187.104,301.667 187.333 C 301.589 187.563,301.364 188.162,301.167 188.667 C 300.970 189.171,300.748 189.771,300.674 190.000 C 300.600 190.229,300.445 190.642,300.330 190.917 C 300.214 191.192,300.026 191.642,299.912 191.917 C 299.797 192.192,299.534 192.925,299.327 193.547 C 299.121 194.168,298.887 194.717,298.809 194.765 C 298.731 194.813,298.667 195.021,298.667 195.227 C 298.667 195.432,298.602 195.671,298.522 195.758 C 298.390 195.903,298.017 196.896,297.664 198.042 L 297.523 198.500 301.159 198.500 L 304.794 198.500 305.073 197.708 C 305.226 197.273,305.418 196.692,305.498 196.417 C 305.579 196.142,305.814 195.448,306.021 194.875 L 306.398 193.833 310.847 193.833 L 315.296 193.833 315.380 194.292 C 315.455 194.698,316.182 196.778,316.690 198.042 L 316.874 198.500 320.520 198.500 C 324.199 198.500,324.509 198.448,324.024 197.908 C 323.946 197.821,323.638 197.037,323.339 196.167 C 323.041 195.296,322.699 194.358,322.579 194.083 C 322.459 193.808,322.081 192.796,321.739 191.833 C 321.397 190.871,321.054 190.012,320.975 189.925 C 320.897 189.838,320.833 189.609,320.833 189.415 C 320.833 189.222,320.723 188.918,320.589 188.740 C 320.454 188.562,320.342 188.263,320.339 188.075 C 320.336 187.887,320.268 187.662,320.187 187.575 C 320.107 187.488,319.833 186.795,319.579 186.036 C 319.324 185.276,319.053 184.616,318.975 184.568 C 318.897 184.520,318.833 184.312,318.833 184.107 C 318.833 183.901,318.770 183.662,318.694 183.575 C 318.617 183.488,318.344 182.817,318.087 182.083 C 317.830 181.350,317.555 180.679,317.476 180.592 C 317.398 180.505,317.333 180.265,317.333 180.060 C 317.333 179.854,317.270 179.647,317.192 179.599 C 317.114 179.551,316.842 178.890,316.588 178.131 C 316.334 177.371,316.060 176.679,315.979 176.592 C 315.899 176.505,315.833 176.265,315.833 176.060 C 315.833 175.854,315.769 175.647,315.691 175.598 C 315.613 175.550,315.379 175.002,315.173 174.380 C 314.966 173.759,314.684 173.006,314.546 172.708 L 314.295 172.167 310.811 172.167 C 307.351 172.167,307.325 172.169,307.181 172.542 M326.167 175.250 L 326.167 178.333 330.083 178.333 L 334.000 178.333 334.000 188.417 L 334.000 198.500 337.500 198.500 L 341.000 198.500 341.000 188.417 L 341.000 178.333 344.833 178.333 L 348.667 178.333 348.667 175.250 L 348.667 172.167 337.417 172.167 L 326.167 172.167 326.167 175.250 M353.333 185.333 L 353.333 198.500 364.000 198.500 L 374.667 198.500 374.667 195.667 L 374.667 192.833 367.417 192.833 L 360.167 192.833 360.167 190.333 L 360.167 187.833 366.583 187.833 L 373.000 187.833 373.000 185.000 L 373.000 182.167 366.583 182.167 L 360.167 182.167 360.167 180.167 L 360.167 178.167 367.250 178.167 L 374.333 178.167 374.333 175.167 L 374.333 172.167 363.833 172.167 L 353.333 172.167 353.333 185.333 M103.761 178.009 C 105.133 178.253,105.186 178.274,105.759 178.791 C 107.110 180.009,106.975 181.920,105.451 183.146 C 104.920 183.573,103.128 183.822,100.542 183.827 L 98.000 183.833 98.000 180.833 L 98.000 177.833 100.386 177.833 C 101.698 177.833,103.217 177.913,103.761 178.009 M74.580 182.500 C 74.738 183.096,74.944 183.771,75.038 184.000 C 75.133 184.229,75.270 184.642,75.345 184.917 C 75.419 185.192,75.739 186.148,76.056 187.042 L 76.632 188.667 73.911 188.667 L 71.190 188.667 71.335 188.208 C 71.414 187.956,71.890 186.512,72.393 185.000 C 72.895 183.487,73.444 181.785,73.611 181.216 L 73.917 180.183 74.105 180.800 C 74.209 181.139,74.423 181.904,74.580 182.500 M311.242 181.667 C 311.532 182.632,313.275 187.992,313.423 188.375 C 313.528 188.646,313.335 188.667,310.764 188.667 L 307.991 188.667 308.246 188.175 C 308.386 187.904,308.500 187.544,308.500 187.375 C 308.500 187.205,308.563 186.995,308.640 186.908 C 308.772 186.759,309.686 184.019,310.278 182.000 C 310.778 180.294,310.908 180.011,310.966 180.500 C 310.994 180.729,311.118 181.254,311.242 181.667 " stroke="none" fill="#fcfcfc" fill-rule="evenodd"></path><path id="path1" d="M97.500 102.584 L 97.500 146.668 112.208 146.626 L 126.917 146.583 126.959 102.542 L 127.001 58.500 112.250 58.500 L 97.500 58.500 97.500 102.584 M214.500 73.250 L 214.500 88.000 258.500 88.000 L 302.500 88.000 302.500 73.250 L 302.500 58.500 258.500 58.500 L 214.500 58.500 214.500 73.250 " stroke="none" fill="#fca404" fill-rule="evenodd"></path><path id="path2" d="" stroke="none" fill="#fcd0100" fill-rule="evenodd"></path><path id="path3" d="" stroke="none" fill="#fcd0100" fill-rule="evenodd"></path><path id="path4" d="" stroke="none" fill="#fcd0100" fill-rule="evenodd"></path></g></svg>