<svg width="36" height="36" viewBox="0 0 36 36" fill="none" xmlns="http://www.w3.org/2000/svg">
<g clip-path="url(#clip0_66_4403)">
<path d="M17.9756 18.5C17.8605 18.5 17.4894 18.4101 16.7928 18.0758C16.1471 17.7659 15.3523 17.3123 14.4532 16.7511C12.6581 15.6306 10.5204 14.1275 8.45785 12.6123C6.39858 11.0996 4.42863 9.5855 2.97253 8.44879C2.24478 7.88068 1.64609 7.40737 1.22962 7.07633C1.12586 6.99385 1.03342 6.92021 0.953125 6.85615V6C0.953125 4.89694 1.84876 4 2.95612 4H32.9951C34.1019 4 34.9958 4.8934 34.9996 5.99288L34.9833 7.01262C34.9033 7.07627 34.811 7.14956 34.7072 7.23176C34.295 7.55825 33.7023 8.02506 32.9813 8.5854C31.5386 9.70658 29.5851 11.1999 27.5381 12.6919C25.4877 14.1863 23.3583 15.6683 21.5601 16.7729C20.6596 17.3261 19.8607 17.773 19.2072 18.0784C18.5081 18.4052 18.1172 18.5 17.9756 18.5ZM17.9756 24.625C18.6066 24.625 19.358 24.3605 20.0789 24.0386C20.84 23.6986 21.718 23.2232 22.653 22.6688C24.5256 21.5584 26.7009 20.0872 28.7584 18.6282C30.8193 17.1669 32.7773 15.7069 34.2191 14.6131C34.4914 14.4065 34.7454 14.2129 34.9783 14.0348L34.9996 30C34.9996 30.0004 34.9996 30.0007 34.9996 30.0011C34.999 31.1033 34.1039 32 32.9951 32H2.95612C1.85013 32 0.953449 31.1031 0.953125 30.0006C0.953125 30.0004 0.953125 30.0002 0.953125 30L0.97444 14.0141C1.22012 14.1991 1.48936 14.4011 1.77885 14.6175C3.24202 15.7108 5.22545 17.17 7.30265 18.6305C9.37662 20.0888 11.5584 21.5584 13.4147 22.6671C14.3414 23.2206 15.205 23.6951 15.9439 24.0343C16.6347 24.3514 17.3689 24.625 17.9756 24.625Z" stroke="white" stroke-width="2"/>
</g>
<defs>
<clipPath id="clip0_66_4403">
<rect width="36" height="36" fill="white"/>
</clipPath>
</defs>
</svg>
