<svg width="112" height="87" viewBox="0 0 112 87" fill="none" xmlns="http://www.w3.org/2000/svg">
<circle cx="1.48903" cy="1.48903" r="1.48903" transform="matrix(-1 0 0 1 111.043 0.199219)" fill="#15313F"/>
<circle cx="1.48903" cy="1.48903" r="1.48903" transform="matrix(-1 0 0 1 39.5703 0.199219)" fill="#15313F"/>
<circle cx="1.48903" cy="1.48903" r="1.48903" transform="matrix(-1 0 0 1 75.3066 0.199219)" fill="#15313F"/>
<circle cx="1.48903" cy="1.48903" r="1.48903" transform="matrix(-1 0 0 1 3.83203 0.199219)" fill="#15313F"/>
<circle cx="1.48903" cy="1.48903" r="1.48903" transform="matrix(-1 0 0 1 93.1738 0.199219)" fill="#15313F"/>
<circle cx="1.48903" cy="1.48903" r="1.48903" transform="matrix(-1 0 0 1 21.7012 0.199219)" fill="#15313F"/>
<circle cx="1.48903" cy="1.48903" r="1.48903" transform="matrix(-1 0 0 1 57.4375 0.199219)" fill="#15313F"/>
<circle cx="1.48903" cy="1.48903" r="1.48903" transform="matrix(-1 0 0 1 105.086 0.199219)" fill="#15313F"/>
<circle cx="1.48903" cy="1.48903" r="1.48903" transform="matrix(-1 0 0 1 33.6133 0.199219)" fill="#15313F"/>
<circle cx="1.48903" cy="1.48903" r="1.48903" transform="matrix(-1 0 0 1 69.3496 0.199219)" fill="#15313F"/>
<circle cx="1.48903" cy="1.48903" r="1.48903" transform="matrix(-1 0 0 1 87.2188 0.199219)" fill="#15313F"/>
<circle cx="1.48903" cy="1.48903" r="1.48903" transform="matrix(-1 0 0 1 15.7461 0.199219)" fill="#15313F"/>
<circle cx="1.48903" cy="1.48903" r="1.48903" transform="matrix(-1 0 0 1 51.4824 0.199219)" fill="#15313F"/>
<circle cx="1.48903" cy="1.48903" r="1.48903" transform="matrix(-1 0 0 1 99.1309 0.199219)" fill="#15313F"/>
<circle cx="1.48903" cy="1.48903" r="1.48903" transform="matrix(-1 0 0 1 27.6582 0.199219)" fill="#15313F"/>
<circle cx="1.48903" cy="1.48903" r="1.48903" transform="matrix(-1 0 0 1 63.3945 0.199219)" fill="#15313F"/>
<circle cx="1.48903" cy="1.48903" r="1.48903" transform="matrix(-1 0 0 1 81.2617 0.199219)" fill="#15313F"/>
<circle cx="1.48903" cy="1.48903" r="1.48903" transform="matrix(-1 0 0 1 9.78906 0.199219)" fill="#15313F"/>
<circle cx="1.48903" cy="1.48903" r="1.48903" transform="matrix(-1 0 0 1 45.5254 0.199219)" fill="#15313F"/>
<circle cx="1.48903" cy="1.48903" r="1.48903" transform="matrix(-1 0 0 1 111.043 47.8481)" fill="#15313F"/>
<circle cx="1.48903" cy="1.48903" r="1.48903" transform="matrix(-1 0 0 1 39.5703 47.8481)" fill="#15313F"/>
<circle cx="1.48903" cy="1.48903" r="1.48903" transform="matrix(-1 0 0 1 75.3066 47.8481)" fill="#15313F"/>
<circle cx="1.48903" cy="1.48903" r="1.48903" transform="matrix(-1 0 0 1 3.83203 47.8481)" fill="#15313F"/>
<circle cx="1.48903" cy="1.48903" r="1.48903" transform="matrix(-1 0 0 1 93.1738 47.8481)" fill="#15313F"/>
<circle cx="1.48903" cy="1.48903" r="1.48903" transform="matrix(-1 0 0 1 21.7012 47.8481)" fill="#15313F"/>
<circle cx="1.48903" cy="1.48903" r="1.48903" transform="matrix(-1 0 0 1 57.4375 47.8481)" fill="#15313F"/>
<circle cx="1.48903" cy="1.48903" r="1.48903" transform="matrix(-1 0 0 1 105.086 47.8481)" fill="#15313F"/>
<circle cx="1.48903" cy="1.48903" r="1.48903" transform="matrix(-1 0 0 1 33.6133 47.8481)" fill="#15313F"/>
<circle cx="1.48903" cy="1.48903" r="1.48903" transform="matrix(-1 0 0 1 69.3496 47.8481)" fill="#15313F"/>
<circle cx="1.48903" cy="1.48903" r="1.48903" transform="matrix(-1 0 0 1 87.2188 47.8481)" fill="#15313F"/>
<circle cx="1.48903" cy="1.48903" r="1.48903" transform="matrix(-1 0 0 1 15.7461 47.8481)" fill="#15313F"/>
<circle cx="1.48903" cy="1.48903" r="1.48903" transform="matrix(-1 0 0 1 51.4824 47.8481)" fill="#15313F"/>
<circle cx="1.48903" cy="1.48903" r="1.48903" transform="matrix(-1 0 0 1 99.1309 47.8481)" fill="#15313F"/>
<circle cx="1.48903" cy="1.48903" r="1.48903" transform="matrix(-1 0 0 1 27.6582 47.8481)" fill="#15313F"/>
<circle cx="1.48903" cy="1.48903" r="1.48903" transform="matrix(-1 0 0 1 63.3945 47.8481)" fill="#15313F"/>
<circle cx="1.48903" cy="1.48903" r="1.48903" transform="matrix(-1 0 0 1 81.2617 47.8481)" fill="#15313F"/>
<circle cx="1.48903" cy="1.48903" r="1.48903" transform="matrix(-1 0 0 1 9.78906 47.8481)" fill="#15313F"/>
<circle cx="1.48903" cy="1.48903" r="1.48903" transform="matrix(-1 0 0 1 45.5254 47.8481)" fill="#15313F"/>
<circle cx="1.48903" cy="1.48903" r="1.48903" transform="matrix(-1 0 0 1 111.043 65.7163)" fill="#15313F"/>
<circle cx="1.48903" cy="1.48903" r="1.48903" transform="matrix(-1 0 0 1 39.5703 65.7163)" fill="#15313F"/>
<circle cx="1.48903" cy="1.48903" r="1.48903" transform="matrix(-1 0 0 1 75.3066 65.7163)" fill="#15313F"/>
<circle cx="1.48903" cy="1.48903" r="1.48903" transform="matrix(-1 0 0 1 3.83203 65.7163)" fill="#15313F"/>
<circle cx="1.48903" cy="1.48903" r="1.48903" transform="matrix(-1 0 0 1 93.1738 65.7163)" fill="#15313F"/>
<circle cx="1.48903" cy="1.48903" r="1.48903" transform="matrix(-1 0 0 1 21.7012 65.7163)" fill="#15313F"/>
<circle cx="1.48903" cy="1.48903" r="1.48903" transform="matrix(-1 0 0 1 57.4375 65.7163)" fill="#15313F"/>
<circle cx="1.48903" cy="1.48903" r="1.48903" transform="matrix(-1 0 0 1 105.086 65.7163)" fill="#15313F"/>
<circle cx="1.48903" cy="1.48903" r="1.48903" transform="matrix(-1 0 0 1 33.6133 65.7163)" fill="#15313F"/>
<circle cx="1.48903" cy="1.48903" r="1.48903" transform="matrix(-1 0 0 1 69.3496 65.7163)" fill="#15313F"/>
<circle cx="1.48903" cy="1.48903" r="1.48903" transform="matrix(-1 0 0 1 87.2188 65.7163)" fill="#15313F"/>
<circle cx="1.48903" cy="1.48903" r="1.48903" transform="matrix(-1 0 0 1 15.7461 65.7163)" fill="#15313F"/>
<circle cx="1.48903" cy="1.48903" r="1.48903" transform="matrix(-1 0 0 1 51.4824 65.7163)" fill="#15313F"/>
<circle cx="1.48903" cy="1.48903" r="1.48903" transform="matrix(-1 0 0 1 99.1309 65.7163)" fill="#15313F"/>
<circle cx="1.48903" cy="1.48903" r="1.48903" transform="matrix(-1 0 0 1 27.6582 65.7163)" fill="#15313F"/>
<circle cx="1.48903" cy="1.48903" r="1.48903" transform="matrix(-1 0 0 1 63.3945 65.7163)" fill="#15313F"/>
<circle cx="1.48903" cy="1.48903" r="1.48903" transform="matrix(-1 0 0 1 81.2617 65.7163)" fill="#15313F"/>
<circle cx="1.48903" cy="1.48903" r="1.48903" transform="matrix(-1 0 0 1 9.78906 65.7163)" fill="#15313F"/>
<circle cx="1.48903" cy="1.48903" r="1.48903" transform="matrix(-1 0 0 1 45.5254 65.7163)" fill="#15313F"/>
<circle cx="1.48903" cy="1.48903" r="1.48903" transform="matrix(-1 0 0 1 111.043 83.585)" fill="#15313F"/>
<circle cx="1.48903" cy="1.48903" r="1.48903" transform="matrix(-1 0 0 1 39.5703 83.585)" fill="#15313F"/>
<circle cx="1.48903" cy="1.48903" r="1.48903" transform="matrix(-1 0 0 1 75.3066 83.585)" fill="#15313F"/>
<circle cx="1.48903" cy="1.48903" r="1.48903" transform="matrix(-1 0 0 1 3.83203 83.585)" fill="#15313F"/>
<circle cx="1.48903" cy="1.48903" r="1.48903" transform="matrix(-1 0 0 1 93.1738 83.585)" fill="#15313F"/>
<circle cx="1.48903" cy="1.48903" r="1.48903" transform="matrix(-1 0 0 1 21.7012 83.585)" fill="#15313F"/>
<circle cx="1.48903" cy="1.48903" r="1.48903" transform="matrix(-1 0 0 1 57.4375 83.585)" fill="#15313F"/>
<circle cx="1.48903" cy="1.48903" r="1.48903" transform="matrix(-1 0 0 1 105.086 83.585)" fill="#15313F"/>
<circle cx="1.48903" cy="1.48903" r="1.48903" transform="matrix(-1 0 0 1 33.6133 83.585)" fill="#15313F"/>
<circle cx="1.48903" cy="1.48903" r="1.48903" transform="matrix(-1 0 0 1 69.3496 83.585)" fill="#15313F"/>
<circle cx="1.48903" cy="1.48903" r="1.48903" transform="matrix(-1 0 0 1 87.2188 83.585)" fill="#15313F"/>
<circle cx="1.48903" cy="1.48903" r="1.48903" transform="matrix(-1 0 0 1 15.7461 83.585)" fill="#15313F"/>
<circle cx="1.48903" cy="1.48903" r="1.48903" transform="matrix(-1 0 0 1 51.4824 83.585)" fill="#15313F"/>
<circle cx="1.48903" cy="1.48903" r="1.48903" transform="matrix(-1 0 0 1 99.1309 83.585)" fill="#15313F"/>
<circle cx="1.48903" cy="1.48903" r="1.48903" transform="matrix(-1 0 0 1 27.6582 83.585)" fill="#15313F"/>
<circle cx="1.48903" cy="1.48903" r="1.48903" transform="matrix(-1 0 0 1 63.3945 83.585)" fill="#15313F"/>
<circle cx="1.48903" cy="1.48903" r="1.48903" transform="matrix(-1 0 0 1 81.2617 83.585)" fill="#15313F"/>
<circle cx="1.48903" cy="1.48903" r="1.48903" transform="matrix(-1 0 0 1 9.78906 83.585)" fill="#15313F"/>
<circle cx="1.48903" cy="1.48903" r="1.48903" transform="matrix(-1 0 0 1 45.5254 83.585)" fill="#15313F"/>
<circle cx="1.48903" cy="1.48903" r="1.48903" transform="matrix(-1 0 0 1 111.043 24.0234)" fill="#15313F"/>
<circle cx="1.48903" cy="1.48903" r="1.48903" transform="matrix(-1 0 0 1 39.5703 24.0234)" fill="#15313F"/>
<circle cx="1.48903" cy="1.48903" r="1.48903" transform="matrix(-1 0 0 1 75.3066 24.0234)" fill="#15313F"/>
<circle cx="1.48903" cy="1.48903" r="1.48903" transform="matrix(-1 0 0 1 3.83203 24.0234)" fill="#15313F"/>
<circle cx="1.48903" cy="1.48903" r="1.48903" transform="matrix(-1 0 0 1 93.1738 24.0234)" fill="#15313F"/>
<circle cx="1.48903" cy="1.48903" r="1.48903" transform="matrix(-1 0 0 1 21.7012 24.0234)" fill="#15313F"/>
<circle cx="1.48903" cy="1.48903" r="1.48903" transform="matrix(-1 0 0 1 57.4375 24.0234)" fill="#15313F"/>
<circle cx="1.48903" cy="1.48903" r="1.48903" transform="matrix(-1 0 0 1 105.086 24.0234)" fill="#15313F"/>
<circle cx="1.48903" cy="1.48903" r="1.48903" transform="matrix(-1 0 0 1 33.6133 24.0234)" fill="#15313F"/>
<circle cx="1.48903" cy="1.48903" r="1.48903" transform="matrix(-1 0 0 1 69.3496 24.0234)" fill="#15313F"/>
<circle cx="1.48903" cy="1.48903" r="1.48903" transform="matrix(-1 0 0 1 87.2188 24.0234)" fill="#15313F"/>
<circle cx="1.48903" cy="1.48903" r="1.48903" transform="matrix(-1 0 0 1 15.7461 24.0234)" fill="#15313F"/>
<circle cx="1.48903" cy="1.48903" r="1.48903" transform="matrix(-1 0 0 1 51.4824 24.0234)" fill="#15313F"/>
<circle cx="1.48903" cy="1.48903" r="1.48903" transform="matrix(-1 0 0 1 99.1309 24.0234)" fill="#15313F"/>
<circle cx="1.48903" cy="1.48903" r="1.48903" transform="matrix(-1 0 0 1 27.6582 24.0234)" fill="#15313F"/>
<circle cx="1.48903" cy="1.48903" r="1.48903" transform="matrix(-1 0 0 1 63.3945 24.0234)" fill="#15313F"/>
<circle cx="1.48903" cy="1.48903" r="1.48903" transform="matrix(-1 0 0 1 81.2617 24.0234)" fill="#15313F"/>
<circle cx="1.48903" cy="1.48903" r="1.48903" transform="matrix(-1 0 0 1 9.78906 24.0234)" fill="#15313F"/>
<circle cx="1.48903" cy="1.48903" r="1.48903" transform="matrix(-1 0 0 1 45.5254 24.0234)" fill="#15313F"/>
<circle cx="1.48903" cy="1.48903" r="1.48903" transform="matrix(-1 0 0 1 111.043 12.1113)" fill="#15313F"/>
<circle cx="1.48903" cy="1.48903" r="1.48903" transform="matrix(-1 0 0 1 39.5703 12.1113)" fill="#15313F"/>
<circle cx="1.48903" cy="1.48903" r="1.48903" transform="matrix(-1 0 0 1 75.3066 12.1113)" fill="#15313F"/>
<circle cx="1.48903" cy="1.48903" r="1.48903" transform="matrix(-1 0 0 1 3.83203 12.1113)" fill="#15313F"/>
<circle cx="1.48903" cy="1.48903" r="1.48903" transform="matrix(-1 0 0 1 93.1738 12.1113)" fill="#15313F"/>
<circle cx="1.48903" cy="1.48903" r="1.48903" transform="matrix(-1 0 0 1 21.7012 12.1113)" fill="#15313F"/>
<circle cx="1.48903" cy="1.48903" r="1.48903" transform="matrix(-1 0 0 1 57.4375 12.1113)" fill="#15313F"/>
<circle cx="1.48903" cy="1.48903" r="1.48903" transform="matrix(-1 0 0 1 105.086 12.1113)" fill="#15313F"/>
<circle cx="1.48903" cy="1.48903" r="1.48903" transform="matrix(-1 0 0 1 33.6133 12.1113)" fill="#15313F"/>
<circle cx="1.48903" cy="1.48903" r="1.48903" transform="matrix(-1 0 0 1 69.3496 12.1113)" fill="#15313F"/>
<circle cx="1.48903" cy="1.48903" r="1.48903" transform="matrix(-1 0 0 1 87.2188 12.1113)" fill="#15313F"/>
<circle cx="1.48903" cy="1.48903" r="1.48903" transform="matrix(-1 0 0 1 15.7461 12.1113)" fill="#15313F"/>
<circle cx="1.48903" cy="1.48903" r="1.48903" transform="matrix(-1 0 0 1 51.4824 12.1113)" fill="#15313F"/>
<circle cx="1.48903" cy="1.48903" r="1.48903" transform="matrix(-1 0 0 1 99.1309 12.1113)" fill="#15313F"/>
<circle cx="1.48903" cy="1.48903" r="1.48903" transform="matrix(-1 0 0 1 27.6582 12.1113)" fill="#15313F"/>
<circle cx="1.48903" cy="1.48903" r="1.48903" transform="matrix(-1 0 0 1 63.3945 12.1113)" fill="#15313F"/>
<circle cx="1.48903" cy="1.48903" r="1.48903" transform="matrix(-1 0 0 1 81.2617 12.1113)" fill="#15313F"/>
<circle cx="1.48903" cy="1.48903" r="1.48903" transform="matrix(-1 0 0 1 9.78906 12.1113)" fill="#15313F"/>
<circle cx="1.48903" cy="1.48903" r="1.48903" transform="matrix(-1 0 0 1 45.5254 12.1113)" fill="#15313F"/>
<circle cx="1.48903" cy="1.48903" r="1.48903" transform="matrix(-1 0 0 1 111.043 35.936)" fill="#15313F"/>
<circle cx="1.48903" cy="1.48903" r="1.48903" transform="matrix(-1 0 0 1 39.5703 35.936)" fill="#15313F"/>
<circle cx="1.48903" cy="1.48903" r="1.48903" transform="matrix(-1 0 0 1 75.3066 35.936)" fill="#15313F"/>
<circle cx="1.48903" cy="1.48903" r="1.48903" transform="matrix(-1 0 0 1 3.83203 35.936)" fill="#15313F"/>
<circle cx="1.48903" cy="1.48903" r="1.48903" transform="matrix(-1 0 0 1 93.1738 35.936)" fill="#15313F"/>
<circle cx="1.48903" cy="1.48903" r="1.48903" transform="matrix(-1 0 0 1 21.7012 35.936)" fill="#15313F"/>
<circle cx="1.48903" cy="1.48903" r="1.48903" transform="matrix(-1 0 0 1 57.4375 35.936)" fill="#15313F"/>
<circle cx="1.48903" cy="1.48903" r="1.48903" transform="matrix(-1 0 0 1 105.086 35.936)" fill="#15313F"/>
<circle cx="1.48903" cy="1.48903" r="1.48903" transform="matrix(-1 0 0 1 33.6133 35.936)" fill="#15313F"/>
<circle cx="1.48903" cy="1.48903" r="1.48903" transform="matrix(-1 0 0 1 69.3496 35.936)" fill="#15313F"/>
<circle cx="1.48903" cy="1.48903" r="1.48903" transform="matrix(-1 0 0 1 87.2188 35.936)" fill="#15313F"/>
<circle cx="1.48903" cy="1.48903" r="1.48903" transform="matrix(-1 0 0 1 15.7461 35.936)" fill="#15313F"/>
<circle cx="1.48903" cy="1.48903" r="1.48903" transform="matrix(-1 0 0 1 51.4824 35.936)" fill="#15313F"/>
<circle cx="1.48903" cy="1.48903" r="1.48903" transform="matrix(-1 0 0 1 99.1309 35.936)" fill="#15313F"/>
<circle cx="1.48903" cy="1.48903" r="1.48903" transform="matrix(-1 0 0 1 27.6582 35.936)" fill="#15313F"/>
<circle cx="1.48903" cy="1.48903" r="1.48903" transform="matrix(-1 0 0 1 63.3945 35.936)" fill="#15313F"/>
<circle cx="1.48903" cy="1.48903" r="1.48903" transform="matrix(-1 0 0 1 81.2617 35.936)" fill="#15313F"/>
<circle cx="1.48903" cy="1.48903" r="1.48903" transform="matrix(-1 0 0 1 9.78906 35.936)" fill="#15313F"/>
<circle cx="1.48903" cy="1.48903" r="1.48903" transform="matrix(-1 0 0 1 45.5254 35.936)" fill="#15313F"/>
<circle cx="1.48903" cy="1.48903" r="1.48903" transform="matrix(-1 0 0 1 111.043 53.8042)" fill="#15313F"/>
<circle cx="1.48903" cy="1.48903" r="1.48903" transform="matrix(-1 0 0 1 39.5703 53.8042)" fill="#15313F"/>
<circle cx="1.48903" cy="1.48903" r="1.48903" transform="matrix(-1 0 0 1 75.3066 53.8042)" fill="#15313F"/>
<circle cx="1.48903" cy="1.48903" r="1.48903" transform="matrix(-1 0 0 1 3.83203 53.8042)" fill="#15313F"/>
<circle cx="1.48903" cy="1.48903" r="1.48903" transform="matrix(-1 0 0 1 93.1738 53.8042)" fill="#15313F"/>
<circle cx="1.48903" cy="1.48903" r="1.48903" transform="matrix(-1 0 0 1 21.7012 53.8042)" fill="#15313F"/>
<circle cx="1.48903" cy="1.48903" r="1.48903" transform="matrix(-1 0 0 1 57.4375 53.8042)" fill="#15313F"/>
<circle cx="1.48903" cy="1.48903" r="1.48903" transform="matrix(-1 0 0 1 105.086 53.8042)" fill="#15313F"/>
<circle cx="1.48903" cy="1.48903" r="1.48903" transform="matrix(-1 0 0 1 33.6133 53.8042)" fill="#15313F"/>
<circle cx="1.48903" cy="1.48903" r="1.48903" transform="matrix(-1 0 0 1 69.3496 53.8042)" fill="#15313F"/>
<circle cx="1.48903" cy="1.48903" r="1.48903" transform="matrix(-1 0 0 1 87.2188 53.8042)" fill="#15313F"/>
<circle cx="1.48903" cy="1.48903" r="1.48903" transform="matrix(-1 0 0 1 15.7461 53.8042)" fill="#15313F"/>
<circle cx="1.48903" cy="1.48903" r="1.48903" transform="matrix(-1 0 0 1 51.4824 53.8042)" fill="#15313F"/>
<circle cx="1.48903" cy="1.48903" r="1.48903" transform="matrix(-1 0 0 1 99.1309 53.8042)" fill="#15313F"/>
<circle cx="1.48903" cy="1.48903" r="1.48903" transform="matrix(-1 0 0 1 27.6582 53.8042)" fill="#15313F"/>
<circle cx="1.48903" cy="1.48903" r="1.48903" transform="matrix(-1 0 0 1 63.3945 53.8042)" fill="#15313F"/>
<circle cx="1.48903" cy="1.48903" r="1.48903" transform="matrix(-1 0 0 1 81.2617 53.8042)" fill="#15313F"/>
<circle cx="1.48903" cy="1.48903" r="1.48903" transform="matrix(-1 0 0 1 9.78906 53.8042)" fill="#15313F"/>
<circle cx="1.48903" cy="1.48903" r="1.48903" transform="matrix(-1 0 0 1 45.5254 53.8042)" fill="#15313F"/>
<circle cx="1.48903" cy="1.48903" r="1.48903" transform="matrix(-1 0 0 1 111.043 71.6724)" fill="#15313F"/>
<circle cx="1.48903" cy="1.48903" r="1.48903" transform="matrix(-1 0 0 1 39.5703 71.6724)" fill="#15313F"/>
<circle cx="1.48903" cy="1.48903" r="1.48903" transform="matrix(-1 0 0 1 75.3066 71.6724)" fill="#15313F"/>
<circle cx="1.48903" cy="1.48903" r="1.48903" transform="matrix(-1 0 0 1 3.83203 71.6724)" fill="#15313F"/>
<circle cx="1.48903" cy="1.48903" r="1.48903" transform="matrix(-1 0 0 1 93.1738 71.6724)" fill="#15313F"/>
<circle cx="1.48903" cy="1.48903" r="1.48903" transform="matrix(-1 0 0 1 21.7012 71.6724)" fill="#15313F"/>
<circle cx="1.48903" cy="1.48903" r="1.48903" transform="matrix(-1 0 0 1 57.4375 71.6724)" fill="#15313F"/>
<circle cx="1.48903" cy="1.48903" r="1.48903" transform="matrix(-1 0 0 1 105.086 71.6724)" fill="#15313F"/>
<circle cx="1.48903" cy="1.48903" r="1.48903" transform="matrix(-1 0 0 1 33.6133 71.6724)" fill="#15313F"/>
<circle cx="1.48903" cy="1.48903" r="1.48903" transform="matrix(-1 0 0 1 69.3496 71.6724)" fill="#15313F"/>
<circle cx="1.48903" cy="1.48903" r="1.48903" transform="matrix(-1 0 0 1 87.2188 71.6724)" fill="#15313F"/>
<circle cx="1.48903" cy="1.48903" r="1.48903" transform="matrix(-1 0 0 1 15.7461 71.6724)" fill="#15313F"/>
<circle cx="1.48903" cy="1.48903" r="1.48903" transform="matrix(-1 0 0 1 51.4824 71.6724)" fill="#15313F"/>
<circle cx="1.48903" cy="1.48903" r="1.48903" transform="matrix(-1 0 0 1 99.1309 71.6724)" fill="#15313F"/>
<circle cx="1.48903" cy="1.48903" r="1.48903" transform="matrix(-1 0 0 1 27.6582 71.6724)" fill="#15313F"/>
<circle cx="1.48903" cy="1.48903" r="1.48903" transform="matrix(-1 0 0 1 63.3945 71.6724)" fill="#15313F"/>
<circle cx="1.48903" cy="1.48903" r="1.48903" transform="matrix(-1 0 0 1 81.2617 71.6724)" fill="#15313F"/>
<circle cx="1.48903" cy="1.48903" r="1.48903" transform="matrix(-1 0 0 1 9.78906 71.6724)" fill="#15313F"/>
<circle cx="1.48903" cy="1.48903" r="1.48903" transform="matrix(-1 0 0 1 45.5254 71.6724)" fill="#15313F"/>
<circle cx="1.48903" cy="1.48903" r="1.48903" transform="matrix(-1 0 0 1 111.043 6.15527)" fill="#15313F"/>
<circle cx="1.48903" cy="1.48903" r="1.48903" transform="matrix(-1 0 0 1 39.5703 6.15527)" fill="#15313F"/>
<circle cx="1.48903" cy="1.48903" r="1.48903" transform="matrix(-1 0 0 1 75.3066 6.15527)" fill="#15313F"/>
<circle cx="1.48903" cy="1.48903" r="1.48903" transform="matrix(-1 0 0 1 3.83203 6.15527)" fill="#15313F"/>
<circle cx="1.48903" cy="1.48903" r="1.48903" transform="matrix(-1 0 0 1 93.1738 6.15527)" fill="#15313F"/>
<circle cx="1.48903" cy="1.48903" r="1.48903" transform="matrix(-1 0 0 1 21.7012 6.15527)" fill="#15313F"/>
<circle cx="1.48903" cy="1.48903" r="1.48903" transform="matrix(-1 0 0 1 57.4375 6.15527)" fill="#15313F"/>
<circle cx="1.48903" cy="1.48903" r="1.48903" transform="matrix(-1 0 0 1 105.086 6.15527)" fill="#15313F"/>
<circle cx="1.48903" cy="1.48903" r="1.48903" transform="matrix(-1 0 0 1 33.6133 6.15527)" fill="#15313F"/>
<circle cx="1.48903" cy="1.48903" r="1.48903" transform="matrix(-1 0 0 1 69.3496 6.15527)" fill="#15313F"/>
<circle cx="1.48903" cy="1.48903" r="1.48903" transform="matrix(-1 0 0 1 87.2188 6.15527)" fill="#15313F"/>
<circle cx="1.48903" cy="1.48903" r="1.48903" transform="matrix(-1 0 0 1 15.7461 6.15527)" fill="#15313F"/>
<circle cx="1.48903" cy="1.48903" r="1.48903" transform="matrix(-1 0 0 1 51.4824 6.15527)" fill="#15313F"/>
<circle cx="1.48903" cy="1.48903" r="1.48903" transform="matrix(-1 0 0 1 99.1309 6.15527)" fill="#15313F"/>
<circle cx="1.48903" cy="1.48903" r="1.48903" transform="matrix(-1 0 0 1 27.6582 6.15527)" fill="#15313F"/>
<circle cx="1.48903" cy="1.48903" r="1.48903" transform="matrix(-1 0 0 1 63.3945 6.15527)" fill="#15313F"/>
<circle cx="1.48903" cy="1.48903" r="1.48903" transform="matrix(-1 0 0 1 81.2617 6.15527)" fill="#15313F"/>
<circle cx="1.48903" cy="1.48903" r="1.48903" transform="matrix(-1 0 0 1 9.78906 6.15527)" fill="#15313F"/>
<circle cx="1.48903" cy="1.48903" r="1.48903" transform="matrix(-1 0 0 1 45.5254 6.15527)" fill="#15313F"/>
<circle cx="1.48903" cy="1.48903" r="1.48903" transform="matrix(-1 0 0 1 111.043 29.98)" fill="#15313F"/>
<circle cx="1.48903" cy="1.48903" r="1.48903" transform="matrix(-1 0 0 1 39.5703 29.98)" fill="#15313F"/>
<circle cx="1.48903" cy="1.48903" r="1.48903" transform="matrix(-1 0 0 1 75.3066 29.98)" fill="#15313F"/>
<circle cx="1.48903" cy="1.48903" r="1.48903" transform="matrix(-1 0 0 1 3.83203 29.98)" fill="#15313F"/>
<circle cx="1.48903" cy="1.48903" r="1.48903" transform="matrix(-1 0 0 1 93.1738 29.98)" fill="#15313F"/>
<circle cx="1.48903" cy="1.48903" r="1.48903" transform="matrix(-1 0 0 1 21.7012 29.98)" fill="#15313F"/>
<circle cx="1.48903" cy="1.48903" r="1.48903" transform="matrix(-1 0 0 1 57.4375 29.98)" fill="#15313F"/>
<circle cx="1.48903" cy="1.48903" r="1.48903" transform="matrix(-1 0 0 1 105.086 29.98)" fill="#15313F"/>
<circle cx="1.48903" cy="1.48903" r="1.48903" transform="matrix(-1 0 0 1 33.6133 29.98)" fill="#15313F"/>
<circle cx="1.48903" cy="1.48903" r="1.48903" transform="matrix(-1 0 0 1 69.3496 29.98)" fill="#15313F"/>
<circle cx="1.48903" cy="1.48903" r="1.48903" transform="matrix(-1 0 0 1 87.2188 29.98)" fill="#15313F"/>
<circle cx="1.48903" cy="1.48903" r="1.48903" transform="matrix(-1 0 0 1 15.7461 29.98)" fill="#15313F"/>
<circle cx="1.48903" cy="1.48903" r="1.48903" transform="matrix(-1 0 0 1 51.4824 29.98)" fill="#15313F"/>
<circle cx="1.48903" cy="1.48903" r="1.48903" transform="matrix(-1 0 0 1 99.1309 29.98)" fill="#15313F"/>
<circle cx="1.48903" cy="1.48903" r="1.48903" transform="matrix(-1 0 0 1 27.6582 29.98)" fill="#15313F"/>
<circle cx="1.48903" cy="1.48903" r="1.48903" transform="matrix(-1 0 0 1 63.3945 29.98)" fill="#15313F"/>
<circle cx="1.48903" cy="1.48903" r="1.48903" transform="matrix(-1 0 0 1 81.2617 29.98)" fill="#15313F"/>
<circle cx="1.48903" cy="1.48903" r="1.48903" transform="matrix(-1 0 0 1 9.78906 29.98)" fill="#15313F"/>
<circle cx="1.48903" cy="1.48903" r="1.48903" transform="matrix(-1 0 0 1 45.5254 29.98)" fill="#15313F"/>
<circle cx="1.48903" cy="1.48903" r="1.48903" transform="matrix(-1 0 0 1 111.043 18.0674)" fill="#15313F"/>
<circle cx="1.48903" cy="1.48903" r="1.48903" transform="matrix(-1 0 0 1 39.5703 18.0674)" fill="#15313F"/>
<circle cx="1.48903" cy="1.48903" r="1.48903" transform="matrix(-1 0 0 1 75.3066 18.0674)" fill="#15313F"/>
<circle cx="1.48903" cy="1.48903" r="1.48903" transform="matrix(-1 0 0 1 3.83203 18.0674)" fill="#15313F"/>
<circle cx="1.48903" cy="1.48903" r="1.48903" transform="matrix(-1 0 0 1 93.1738 18.0674)" fill="#15313F"/>
<circle cx="1.48903" cy="1.48903" r="1.48903" transform="matrix(-1 0 0 1 21.7012 18.0674)" fill="#15313F"/>
<circle cx="1.48903" cy="1.48903" r="1.48903" transform="matrix(-1 0 0 1 57.4375 18.0674)" fill="#15313F"/>
<circle cx="1.48903" cy="1.48903" r="1.48903" transform="matrix(-1 0 0 1 105.086 18.0674)" fill="#15313F"/>
<circle cx="1.48903" cy="1.48903" r="1.48903" transform="matrix(-1 0 0 1 33.6133 18.0674)" fill="#15313F"/>
<circle cx="1.48903" cy="1.48903" r="1.48903" transform="matrix(-1 0 0 1 69.3496 18.0674)" fill="#15313F"/>
<circle cx="1.48903" cy="1.48903" r="1.48903" transform="matrix(-1 0 0 1 87.2188 18.0674)" fill="#15313F"/>
<circle cx="1.48903" cy="1.48903" r="1.48903" transform="matrix(-1 0 0 1 15.7461 18.0674)" fill="#15313F"/>
<circle cx="1.48903" cy="1.48903" r="1.48903" transform="matrix(-1 0 0 1 51.4824 18.0674)" fill="#15313F"/>
<circle cx="1.48903" cy="1.48903" r="1.48903" transform="matrix(-1 0 0 1 99.1309 18.0674)" fill="#15313F"/>
<circle cx="1.48903" cy="1.48903" r="1.48903" transform="matrix(-1 0 0 1 27.6582 18.0674)" fill="#15313F"/>
<circle cx="1.48903" cy="1.48903" r="1.48903" transform="matrix(-1 0 0 1 63.3945 18.0674)" fill="#15313F"/>
<circle cx="1.48903" cy="1.48903" r="1.48903" transform="matrix(-1 0 0 1 81.2617 18.0674)" fill="#15313F"/>
<circle cx="1.48903" cy="1.48903" r="1.48903" transform="matrix(-1 0 0 1 9.78906 18.0674)" fill="#15313F"/>
<circle cx="1.48903" cy="1.48903" r="1.48903" transform="matrix(-1 0 0 1 45.5254 18.0674)" fill="#15313F"/>
<circle cx="1.48903" cy="1.48903" r="1.48903" transform="matrix(-1 0 0 1 111.043 41.8921)" fill="#15313F"/>
<circle cx="1.48903" cy="1.48903" r="1.48903" transform="matrix(-1 0 0 1 39.5703 41.8921)" fill="#15313F"/>
<circle cx="1.48903" cy="1.48903" r="1.48903" transform="matrix(-1 0 0 1 75.3066 41.8921)" fill="#15313F"/>
<circle cx="1.48903" cy="1.48903" r="1.48903" transform="matrix(-1 0 0 1 3.83203 41.8921)" fill="#15313F"/>
<circle cx="1.48903" cy="1.48903" r="1.48903" transform="matrix(-1 0 0 1 93.1738 41.8921)" fill="#15313F"/>
<circle cx="1.48903" cy="1.48903" r="1.48903" transform="matrix(-1 0 0 1 21.7012 41.8921)" fill="#15313F"/>
<circle cx="1.48903" cy="1.48903" r="1.48903" transform="matrix(-1 0 0 1 57.4375 41.8921)" fill="#15313F"/>
<circle cx="1.48903" cy="1.48903" r="1.48903" transform="matrix(-1 0 0 1 105.086 41.8921)" fill="#15313F"/>
<circle cx="1.48903" cy="1.48903" r="1.48903" transform="matrix(-1 0 0 1 33.6133 41.8921)" fill="#15313F"/>
<circle cx="1.48903" cy="1.48903" r="1.48903" transform="matrix(-1 0 0 1 69.3496 41.8921)" fill="#15313F"/>
<circle cx="1.48903" cy="1.48903" r="1.48903" transform="matrix(-1 0 0 1 87.2188 41.8921)" fill="#15313F"/>
<circle cx="1.48903" cy="1.48903" r="1.48903" transform="matrix(-1 0 0 1 15.7461 41.8921)" fill="#15313F"/>
<circle cx="1.48903" cy="1.48903" r="1.48903" transform="matrix(-1 0 0 1 51.4824 41.8921)" fill="#15313F"/>
<circle cx="1.48903" cy="1.48903" r="1.48903" transform="matrix(-1 0 0 1 99.1309 41.8921)" fill="#15313F"/>
<circle cx="1.48903" cy="1.48903" r="1.48903" transform="matrix(-1 0 0 1 27.6582 41.8921)" fill="#15313F"/>
<circle cx="1.48903" cy="1.48903" r="1.48903" transform="matrix(-1 0 0 1 63.3945 41.8921)" fill="#15313F"/>
<circle cx="1.48903" cy="1.48903" r="1.48903" transform="matrix(-1 0 0 1 81.2617 41.8921)" fill="#15313F"/>
<circle cx="1.48903" cy="1.48903" r="1.48903" transform="matrix(-1 0 0 1 9.78906 41.8921)" fill="#15313F"/>
<circle cx="1.48903" cy="1.48903" r="1.48903" transform="matrix(-1 0 0 1 45.5254 41.8921)" fill="#15313F"/>
<circle cx="1.48903" cy="1.48903" r="1.48903" transform="matrix(-1 0 0 1 111.043 59.7603)" fill="#15313F"/>
<circle cx="1.48903" cy="1.48903" r="1.48903" transform="matrix(-1 0 0 1 39.5703 59.7603)" fill="#15313F"/>
<circle cx="1.48903" cy="1.48903" r="1.48903" transform="matrix(-1 0 0 1 75.3066 59.7603)" fill="#15313F"/>
<circle cx="1.48903" cy="1.48903" r="1.48903" transform="matrix(-1 0 0 1 3.83203 59.7603)" fill="#15313F"/>
<circle cx="1.48903" cy="1.48903" r="1.48903" transform="matrix(-1 0 0 1 93.1738 59.7603)" fill="#15313F"/>
<circle cx="1.48903" cy="1.48903" r="1.48903" transform="matrix(-1 0 0 1 21.7012 59.7603)" fill="#15313F"/>
<circle cx="1.48903" cy="1.48903" r="1.48903" transform="matrix(-1 0 0 1 57.4375 59.7603)" fill="#15313F"/>
<circle cx="1.48903" cy="1.48903" r="1.48903" transform="matrix(-1 0 0 1 105.086 59.7603)" fill="#15313F"/>
<circle cx="1.48903" cy="1.48903" r="1.48903" transform="matrix(-1 0 0 1 33.6133 59.7603)" fill="#15313F"/>
<circle cx="1.48903" cy="1.48903" r="1.48903" transform="matrix(-1 0 0 1 69.3496 59.7603)" fill="#15313F"/>
<circle cx="1.48903" cy="1.48903" r="1.48903" transform="matrix(-1 0 0 1 87.2188 59.7603)" fill="#15313F"/>
<circle cx="1.48903" cy="1.48903" r="1.48903" transform="matrix(-1 0 0 1 15.7461 59.7603)" fill="#15313F"/>
<circle cx="1.48903" cy="1.48903" r="1.48903" transform="matrix(-1 0 0 1 51.4824 59.7603)" fill="#15313F"/>
<circle cx="1.48903" cy="1.48903" r="1.48903" transform="matrix(-1 0 0 1 99.1309 59.7603)" fill="#15313F"/>
<circle cx="1.48903" cy="1.48903" r="1.48903" transform="matrix(-1 0 0 1 27.6582 59.7603)" fill="#15313F"/>
<circle cx="1.48903" cy="1.48903" r="1.48903" transform="matrix(-1 0 0 1 63.3945 59.7603)" fill="#15313F"/>
<circle cx="1.48903" cy="1.48903" r="1.48903" transform="matrix(-1 0 0 1 81.2617 59.7603)" fill="#15313F"/>
<circle cx="1.48903" cy="1.48903" r="1.48903" transform="matrix(-1 0 0 1 9.78906 59.7603)" fill="#15313F"/>
<circle cx="1.48903" cy="1.48903" r="1.48903" transform="matrix(-1 0 0 1 45.5254 59.7603)" fill="#15313F"/>
<circle cx="1.48903" cy="1.48903" r="1.48903" transform="matrix(-1 0 0 1 111.043 77.6289)" fill="#15313F"/>
<circle cx="1.48903" cy="1.48903" r="1.48903" transform="matrix(-1 0 0 1 39.5703 77.6289)" fill="#15313F"/>
<circle cx="1.48903" cy="1.48903" r="1.48903" transform="matrix(-1 0 0 1 75.3066 77.6289)" fill="#15313F"/>
<circle cx="1.48903" cy="1.48903" r="1.48903" transform="matrix(-1 0 0 1 3.83203 77.6289)" fill="#15313F"/>
<circle cx="1.48903" cy="1.48903" r="1.48903" transform="matrix(-1 0 0 1 93.1738 77.6289)" fill="#15313F"/>
<circle cx="1.48903" cy="1.48903" r="1.48903" transform="matrix(-1 0 0 1 21.7012 77.6289)" fill="#15313F"/>
<circle cx="1.48903" cy="1.48903" r="1.48903" transform="matrix(-1 0 0 1 57.4375 77.6289)" fill="#15313F"/>
<circle cx="1.48903" cy="1.48903" r="1.48903" transform="matrix(-1 0 0 1 105.086 77.6289)" fill="#15313F"/>
<circle cx="1.48903" cy="1.48903" r="1.48903" transform="matrix(-1 0 0 1 33.6133 77.6289)" fill="#15313F"/>
<circle cx="1.48903" cy="1.48903" r="1.48903" transform="matrix(-1 0 0 1 69.3496 77.6289)" fill="#15313F"/>
<circle cx="1.48903" cy="1.48903" r="1.48903" transform="matrix(-1 0 0 1 87.2188 77.6289)" fill="#15313F"/>
<circle cx="1.48903" cy="1.48903" r="1.48903" transform="matrix(-1 0 0 1 15.7461 77.6289)" fill="#15313F"/>
<circle cx="1.48903" cy="1.48903" r="1.48903" transform="matrix(-1 0 0 1 51.4824 77.6289)" fill="#15313F"/>
<circle cx="1.48903" cy="1.48903" r="1.48903" transform="matrix(-1 0 0 1 99.1309 77.6289)" fill="#15313F"/>
<circle cx="1.48903" cy="1.48903" r="1.48903" transform="matrix(-1 0 0 1 27.6582 77.6289)" fill="#15313F"/>
<circle cx="1.48903" cy="1.48903" r="1.48903" transform="matrix(-1 0 0 1 63.3945 77.6289)" fill="#15313F"/>
<circle cx="1.48903" cy="1.48903" r="1.48903" transform="matrix(-1 0 0 1 81.2617 77.6289)" fill="#15313F"/>
<circle cx="1.48903" cy="1.48903" r="1.48903" transform="matrix(-1 0 0 1 9.78906 77.6289)" fill="#15313F"/>
<circle cx="1.48903" cy="1.48903" r="1.48903" transform="matrix(-1 0 0 1 45.5254 77.6289)" fill="#15313F"/>
</svg>
